<svg width="171" height="26" viewBox="0 0 171 26" fill="none" xmlns="http://www.w3.org/2000/svg">
<path d="M7.41471 25.6211C6.78429 26.1123 6.14017 26.1259 5.48235 25.662C4.82452 25.1982 4.60525 24.5843 4.82452 23.8203L7.16802 16.2485L1.20649 12.0329C0.54867 11.5691 0.350226 10.9551 0.611163 10.1911C0.871003 9.42715 1.39836 9.04516 2.19323 9.04516H9.55264L11.9372 1.18692C12.0743 0.804923 12.287 0.511331 12.5753 0.306144C12.8626 0.102048 13.1707 0 13.4996 0C13.8285 0 14.1366 0.102048 14.4238 0.306144C14.7122 0.511331 14.9249 0.804923 15.0619 1.18692L17.4465 9.04516H24.8059C25.6008 9.04516 26.1287 9.42715 26.3896 10.1911C26.6495 10.9551 26.4505 11.5691 25.7927 12.0329L19.8311 16.2485L22.1746 23.8203C22.3939 24.5843 22.1746 25.1982 21.5168 25.662C20.859 26.1259 20.2149 26.1123 19.5844 25.6211L13.4996 20.9962L7.41471 25.6211Z" fill="#070707"/>
<path d="M43.4147 25.6211C42.7843 26.1123 42.1402 26.1259 41.4823 25.662C40.8245 25.1982 40.6053 24.5843 40.8245 23.8203L43.168 16.2485L37.2065 12.0329C36.5487 11.5691 36.3502 10.9551 36.6112 10.1911C36.871 9.42715 37.3984 9.04516 38.1932 9.04516H45.5526L47.9372 1.18692C48.0743 0.804923 48.287 0.511331 48.5753 0.306144C48.8626 0.102048 49.1707 0 49.4996 0C49.8285 0 50.1366 0.102048 50.4238 0.306144C50.7122 0.511331 50.9249 0.804923 51.0619 1.18692L53.4465 9.04516H60.8059C61.6008 9.04516 62.1287 9.42715 62.3896 10.1911C62.6495 10.9551 62.4505 11.5691 61.7927 12.0329L55.8311 16.2485L58.1746 23.8203C58.3939 24.5843 58.1746 25.1982 57.5168 25.662C56.859 26.1259 56.2149 26.1123 55.5844 25.6211L49.4996 20.9962L43.4147 25.6211Z" fill="#070707"/>
<path d="M79.4147 25.6211C78.7843 26.1123 78.1402 26.1259 77.4823 25.662C76.8245 25.1982 76.6053 24.5843 76.8245 23.8203L79.168 16.2485L73.2065 12.0329C72.5487 11.5691 72.3502 10.9551 72.6112 10.1911C72.871 9.42715 73.3984 9.04516 74.1932 9.04516H81.5526L83.9372 1.18692C84.0743 0.804923 84.287 0.511331 84.5753 0.306144C84.8626 0.102048 85.1707 0 85.4996 0C85.8285 0 86.1366 0.102048 86.4238 0.306144C86.7122 0.511331 86.9249 0.804923 87.0619 1.18692L89.4465 9.04516H96.8059C97.6008 9.04516 98.1287 9.42715 98.3896 10.1911C98.6495 10.9551 98.4505 11.5691 97.7927 12.0329L91.8311 16.2485L94.1746 23.8203C94.3939 24.5843 94.1746 25.1982 93.5168 25.662C92.859 26.1259 92.2149 26.1123 91.5844 25.6211L85.4996 20.9962L79.4147 25.6211Z" fill="#070707"/>
<path d="M115.415 25.6211C114.784 26.1123 114.14 26.1259 113.482 25.662C112.825 25.1982 112.605 24.5843 112.825 23.8203L115.168 16.2485L109.206 12.0329C108.549 11.5691 108.35 10.9551 108.611 10.1911C108.871 9.42715 109.398 9.04516 110.193 9.04516H117.553L119.937 1.18692C120.074 0.804923 120.287 0.511331 120.575 0.306144C120.863 0.102048 121.171 0 121.5 0C121.828 0 122.137 0.102048 122.424 0.306144C122.712 0.511331 122.925 0.804923 123.062 1.18692L125.447 9.04516H132.806C133.601 9.04516 134.129 9.42715 134.39 10.1911C134.649 10.9551 134.45 11.5691 133.793 12.0329L127.831 16.2485L130.175 23.8203C130.394 24.5843 130.175 25.1982 129.517 25.662C128.859 26.1259 128.215 26.1123 127.584 25.6211L121.5 20.9962L115.415 25.6211Z" fill="#070707"/>
<path d="M151.415 25.6211C150.784 26.1123 150.14 26.1259 149.482 25.662C148.825 25.1982 148.605 24.5843 148.825 23.8203L151.168 16.2485L145.206 12.0329C144.549 11.5691 144.35 10.9551 144.611 10.1911C144.871 9.42715 145.398 9.04516 146.193 9.04516H153.553L155.937 1.18692C156.074 0.804923 156.287 0.511331 156.575 0.306144C156.863 0.102048 157.171 0 157.5 0C157.828 0 158.137 0.102048 158.424 0.306144C158.712 0.511331 158.925 0.804923 159.062 1.18692L161.447 9.04516H168.806C169.601 9.04516 170.129 9.42715 170.39 10.1911C170.649 10.9551 170.45 11.5691 169.793 12.0329L163.831 16.2485L166.175 23.8203C166.394 24.5843 166.175 25.1982 165.517 25.662C164.859 26.1259 164.215 26.1123 163.584 25.6211L157.5 20.9962L151.415 25.6211Z" fill="#070707"/>
</svg>
