<?xml version="1.0" standalone="no"?>
<!DOCTYPE svg PUBLIC "-//W3C//DTD SVG 1.1//EN" "http://www.w3.org/Graphics/SVG/1.1/DTD/svg11.dtd" >
<svg xmlns="http://www.w3.org/2000/svg" xmlns:xlink="http://www.w3.org/1999/xlink" version="1.1">
<metadata></metadata>
<defs>
<font id="gemunu_libreextralight" horiz-adv-x="1095" >
<font-face units-per-em="2048" ascent="1638" descent="-410" />
<missing-glyph horiz-adv-x="409" />
<glyph unicode="&#xfb01;" horiz-adv-x="913" d="M53 930v74h471v-74h-471zM186 0v1198q0 109 49.5 146.5t155.5 37.5h164v-75h-262q-14 0 -14 -15v-1292h-93zM678 0v1004h92v-1004h-92zM678 1270v112h92v-112h-92z" />
<glyph unicode="&#xfb02;" horiz-adv-x="925" d="M53 930v74h484v-74h-484zM186 0v1208q0 109 49.5 147t155.5 38h170v-76h-268q-14 0 -14 -14v-1303h-93zM690 0v1382h92v-1382h-92z" />
<glyph horiz-adv-x="0" />
<glyph horiz-adv-x="682" />
<glyph unicode=" "  horiz-adv-x="409" />
<glyph unicode="&#x09;" horiz-adv-x="409" />
<glyph unicode="&#xa0;" horiz-adv-x="409" />
<glyph unicode="!" horiz-adv-x="403" d="M164 983v338h106v-338l-24 -623h-58zM166 0v133h102v-133h-102z" />
<glyph unicode="&#x22;" horiz-adv-x="473" d="M78 1036h61l41 199v147h-102v-346zM268 1036h62l41 199v147h-103v-346z" />
<glyph unicode="#" horiz-adv-x="1067" d="M37 356h897v78h-897v-78zM133 879h897v77h-897v-77zM150 0h77l250 1311h-76zM586 0h78l249 1311h-75z" />
<glyph unicode="$" horiz-adv-x="974" d="M123 784v228q0 109 58.5 164t172.5 53l453 -4v-84h-563q-25 0 -25 -25v-411q0 -25 25 -25h366q115 0 173.5 -44t58.5 -153v-237q0 -115 -53.5 -164t-167.5 -47l-480 4v84h580q25 0 24 24v424q0 25 -24 25h-377q-115 0 -168 37t-53 151zM440 61h95v-225h-95v225zM440 1206 v226h95v-226h-95z" />
<glyph unicode="%" horiz-adv-x="1388" d="M72 731v428q0 72 36.5 106.5t120.5 34.5h166q84 0 122 -34.5t38 -106.5v-428q0 -70 -38 -105.5t-122 -35.5h-166q-84 0 -120.5 35.5t-36.5 105.5zM164 682q0 -14 14 -14h271q14 0 14 14v526q0 15 -14 15h-271q-14 0 -14 -15v-526zM307 -10l688 1321h88l-686 -1321h-90z M834 141v428q0 72 36.5 107t120.5 35h166q84 0 122 -35t38 -107v-428q0 -70 -38 -105.5t-122 -35.5h-166q-84 0 -120.5 35.5t-36.5 105.5zM926 92q0 -14 14 -14h270q14 0 15 14v526q-1 15 -15 15h-270q-14 0 -14 -15v-526z" />
<glyph unicode="&#x26;" horiz-adv-x="1144" d="M164 211v315q0 115 55 155t170 38l21 -43q-115 0 -175.5 42t-60.5 148v230q0 115 55.5 163t169.5 48h267q115 0 170 -48.5t55 -162.5v-131h-100v233q0 25 -25 25h-467q-25 0 -25 -25v-434q0 -25 25 -25h309v-84h-319q-25 0 -25 -24v-525q0 -25 25 -24h487q25 0 25 24v398 q0 109 54 158t171 49h47v-88h-147q-25 0 -25 -25v-387q0 -106 -59 -161.5t-176 -55.5h-267q-115 0 -175 55t-60 162z" />
<glyph unicode="'" horiz-adv-x="288" d="M78 1034h61l49 201v147h-110v-348z" />
<glyph unicode="(" horiz-adv-x="552" d="M143 -154v1352q0 109 54.5 152t160.5 43h144v-80h-244q-14 0 -14 -15v-1552q0 -14 14 -14h244v-80h-144q-106 0 -160.5 44t-54.5 150z" />
<glyph unicode=")" horiz-adv-x="552" d="M51 -268h244q14 0 14 14v1552q0 14 -14 15h-244v80h144q109 0 162 -43t53 -152v-1352q0 -106 -53.5 -150t-161.5 -44h-144v80z" />
<glyph unicode="*" horiz-adv-x="712" d="M82 1114l20 66l115 -37l92 -47l-12 -35l-102 16zM166 858l70 96l73 74l31 -22l-47 -93l-70 -96zM322 1219v118h69v-118l-16 -103h-37zM375 1010l31 20l73 -72l70 -96l-57 -43l-70 96zM403 1096l93 47l112 37l23 -66l-115 -37l-102 -16z" />
<glyph unicode="+" horiz-adv-x="1064" d="M123 567v82h819v-82h-819zM489 211v795h86v-795h-86z" />
<glyph unicode="," horiz-adv-x="327" d="M98 4h56l-7 8q0 -20 -11 -65t-38 -86l43 -33q43 47 63.5 102.5t20.5 100.5v147h-127v-174z" />
<glyph unicode="-" horiz-adv-x="649" d="M72 537v77h506v-77h-506z" />
<glyph unicode="." horiz-adv-x="378" d="M123 0v178h133v-178h-133z" />
<glyph unicode="/" horiz-adv-x="808" d="M41 -197l659 1579h88l-657 -1579h-90z" />
<glyph unicode="0" horiz-adv-x="1052" d="M154 174v952q0 109 49 147t155 38h336q109 0 157 -38t48 -147v-952q0 -106 -48 -145t-157 -39h-336q-106 0 -155 39t-49 145zM254 90q0 -14 14 -14h516q14 0 15 14v1120q-1 15 -15 15h-516q-14 0 -14 -15v-1120z" />
<glyph unicode="1" horiz-adv-x="829" d="M70 1065l350 235h84v-1300h-94v1208l10 -6l-307 -201zM109 0v78h655v-78h-655z" />
<glyph unicode="2" horiz-adv-x="888" d="M84 0v397q0 61 15.5 93t49 52.5t87.5 45.5l430 205q14 6 20 14t6 22v365q0 25 -24 25h-557v81l446 7q78 2 129 -22.5t78 -74t27 -120.5v-220q0 -74 -29 -108.5t-111 -73.5l-432 -207q-27 -12 -32 -25.5t-5 -49.5v-324h613v-82h-711z" />
<glyph unicode="3" horiz-adv-x="897" d="M51 0v82h557q25 0 25 24v504q0 25 -25 25h-444v82h434q25 0 25 24v457q0 25 -25 25h-541v77l441 7q115 2 170 -47.5t55 -163.5v-250q0 -106 -60.5 -148.5t-175.5 -42.5l21 41q115 2 170 -36.5t55 -153.5v-295q0 -106 -60.5 -162.5t-174.5 -54.5z" />
<glyph unicode="4" horiz-adv-x="1052" d="M45 326v63l424 768q31 53 52.5 85t57 45t105.5 13h84v-911l-10 10h203v-73h-203l10 10v-336h-94v336l12 -10h-641zM133 399h553l-12 -10v830h-70q-10 0 -14 -3.5t-8 -11.5l-439 -815z" />
<glyph unicode="5" horiz-adv-x="884" d="M76 0v82h571q25 0 25 24v556q0 25 -25 24h-551v614h641v-81h-544v-451h344q115 0 175 -44t60 -153v-366q0 -115 -55 -164t-170 -47z" />
<glyph unicode="6" horiz-adv-x="991" d="M164 184v906q0 109 60.5 164t174.5 53l443 -7v-81h-553q-25 0 -25 -25v-1088q0 -25 27 -24h473q25 0 24 24v564q0 25 -24 24h-516v82h405q115 0 175.5 -44t60.5 -152v-375q0 -115 -55 -162t-170 -47h-275q-115 0 -170 37t-55 151z" />
<glyph unicode="7" horiz-adv-x="806" d="M41 1221v79h575q66 0 96.5 -27.5t30.5 -88.5l-491 -1188h-98l495 1204q4 10 2 15.5t-12 5.5h-598z" />
<glyph unicode="8" horiz-adv-x="1085" d="M164 211v295q0 115 55 153.5t170 36.5l21 -41q-115 0 -175.5 42t-60.5 149v250q0 115 55.5 163t169.5 48h287q115 0 170 -48.5t55 -162.5v-250q0 -106 -60 -148.5t-175 -42.5l20 41q115 2 170.5 -36.5t55.5 -153.5v-295q0 -106 -59.5 -161.5t-176.5 -55.5h-287 q-115 0 -175 55t-60 162zM264 106q0 -25 25 -24h508q25 0 24 24v504q0 25 -24 25h-508q-25 0 -25 -25v-504zM274 741q0 -25 25 -24h487q25 0 25 24v457q0 25 -25 25h-487q-25 0 -25 -25v-457z" />
<glyph unicode="9" horiz-adv-x="991" d="M102 711v385q0 115 55.5 162t170.5 47h274q115 0 170 -37t55 -152v-905q0 -106 -60 -162.5t-175 -54.5l-453 6v82h563q25 0 25 24v1088q0 25 -27 25h-473q-25 0 -24 -25v-573q0 -25 24 -25h516v-82h-405q-115 0 -175.5 45t-60.5 152z" />
<glyph unicode=":" horiz-adv-x="419" d="M143 61v179h133v-179h-133zM143 602v178h133v-178h-133z" />
<glyph unicode=";" horiz-adv-x="430" d="M143 4h56l-6 8q0 -20 -11.5 -62t-34.5 -77l46 -39q43 47 63 99.5t20 97.5v147h-133v-174zM143 551v178h133v-178h-133z" />
<glyph unicode="&#x3c;" horiz-adv-x="958" d="M123 547v57l692 357v-93l-606 -307v31l606 -305v-94z" />
<glyph unicode="=" horiz-adv-x="993" d="M123 346v82h727v-82h-727zM123 688v82h727v-82h-727z" />
<glyph unicode="&#x3e;" horiz-adv-x="958" d="M143 233v93l607 307v-31l-607 305v94l693 -354v-57z" />
<glyph unicode="?" horiz-adv-x="741" d="M76 1217v83h323q109 0 162 -43t53 -151v-227q0 -57 -38.5 -96.5t-102.5 -106.5l-123 -131q-23 -23 -30 -41.5t-7 -54.5v-162h-98v166q0 45 11.5 71.5t37 53t68.5 71.5l166 170q10 10 13 15.5t3 19.5v348q0 14 -14 15h-424zM213 0v133h102v-133h-102z" />
<glyph unicode="@" horiz-adv-x="1271" d="M143 92v952q0 109 47.5 147t153.5 38h604q109 0 155 -38t46 -147v-684q0 -92 -26.5 -127.5t-104.5 -35.5h-125q-41 0 -62.5 11t-28.5 27.5t-7 30.5v6l14 88q0 -61 -15.5 -97t-51 -51t-97.5 -15h-45q-106 0 -155.5 38.5t-49.5 145.5v383q0 109 49.5 147.5t155.5 36.5 l287 -6v-655q0 -14 14 -15h137q14 0 15 15v841q0 14 -15 15h-784q-14 0 -14 -15v-1120q0 -14 14 -14h633v-86h-543q-106 0 -153.5 39t-47.5 145zM489 287q0 -14 15 -15h276q6 0 10.5 3.5t4.5 11.5v596l14 -15l-305 6q-14 0 -15 -14v-573z" />
<glyph unicode="A" horiz-adv-x="1042" d="M31 0l334 1135q20 70 38.5 104.5t52 47.5t103.5 13h113l342 -1300h-96l-101 389l25 -20h-637l26 20l-110 -389h-90zM229 451h592l-16 -21l-203 789h-119q-8 0 -11 -4.5t-5 -10.5l-223 -774z" />
<glyph unicode="B" horiz-adv-x="1075" d="M154 0v1300l522 7h9q108 1 161 -47q55 -50 55 -164v-262q0 -106 -60.5 -148.5t-174.5 -42.5l41 41h11q107 0 159 -37q55 -39 55 -153v-283q0 -107 -60 -163q-58 -55 -168 -54h-8zM221 82h586q25 0 24 24v492q0 25 -24 25h-582l23 24v-592zM225 705h551q25 0 25 24v471 q0 25 -25 25h-549l21 24v-571z" />
<glyph unicode="C" horiz-adv-x="864" d="M133 184v932q0 109 49 146.5t156 37.5h475v-86h-565q-14 0 -15 -14v-1100q0 -14 15 -14h565v-86h-475q-106 0 -155.5 39t-49.5 145z" />
<glyph unicode="D" horiz-adv-x="1064" d="M154 -2v1302l553 11h9q109 1 161 -49q55 -52 55 -166v-891q0 -115 -60 -166q-58 -49 -167 -49h-9zM248 76h559q25 0 24 24v1100q1 25 -24 25h-559v-1149z" />
<glyph unicode="E" horiz-adv-x="917" d="M154 0v1300h682v-81h-609l21 20v-555l-21 21h576v-82h-576l21 20v-582l-21 21h619v-82h-692z" />
<glyph unicode="F" horiz-adv-x="854" d="M154 0v1300h94v-643l-27 27h570v-82h-570l27 25v-627h-94zM231 1219v81h592v-81h-592z" />
<glyph unicode="G" horiz-adv-x="1054" d="M133 174v952q0 109 49 147t156 38h584v-86h-674q-14 0 -15 -15v-1120q0 -14 15 -14h579q14 0 15 14v500l18 -17h-295v82h377v-481q0 -106 -48 -145t-157 -39h-399q-106 0 -155.5 39t-49.5 145z" />
<glyph unicode="H" horiz-adv-x="1136" d="M154 0v1300h94v-626l-27 26h694l-26 -26v626h94v-1300h-94v643l26 -25h-694l27 25v-643h-94z" />
<glyph unicode="I" horiz-adv-x="462" d="M184 0v1300h95v-1300h-95z" />
<glyph unicode="J" horiz-adv-x="512" d="M31 -10v86h209q14 0 14 14v1210h94v-1134q0 -106 -42 -141t-134 -35h-141z" />
<glyph unicode="K" horiz-adv-x="1064" d="M164 0v1300h94v-1300h-94zM225 621v57h330q72 0 107.5 -15.5t59 -51.5t54.5 -97l266 -514h-104l-309 606q-2 8 -5.5 11.5t-9.5 3.5h-389zM244 645v57h372q6 0 9.5 3.5t5.5 11.5l260 583h98l-221 -491q-20 -47 -37.5 -79t-40 -50t-57.5 -26.5t-88 -8.5h-301z" />
<glyph unicode="L" horiz-adv-x="770" d="M154 0v1300h94v-1245l-27 27h539v-82h-606z" />
<glyph unicode="M" horiz-adv-x="1277" d="M154 0v1300h57q35 0 56.5 -14t41.5 -59l355 -705h-43l403 778h29q45 0 61 -20t16 -68v-1212h-92v1223h41l-415 -791h-54l-393 770h25v-1202h-88z" />
<glyph unicode="N" horiz-adv-x="1136" d="M152 0v1300h63l719 -1150l-35 -29v1179h86v-1300h-63l-719 1151l35 29v-1180h-86z" />
<glyph unicode="O" d="M133 174v952q0 109 49 147t156 38h420q109 0 157 -38t48 -147v-952q0 -106 -48.5 -145t-156.5 -39h-420q-106 0 -155.5 39t-49.5 145zM233 90q0 -14 15 -14h600q14 0 14 14v1120q0 15 -14 15h-600q-14 0 -15 -15v-1120z" />
<glyph unicode="P" horiz-adv-x="989" d="M154 0v1300l542 7h9q107 1 161 -47q56 -50 56 -164v-344q0 -76 -25 -123t-74 -67.5t-127 -20.5h-485l37 24l2 -565h-96zM225 623h572q25 0 24 24v553q0 25 -24 25h-570l21 24v-653z" />
<glyph unicode="Q" horiz-adv-x="1105" d="M133 174v952q0 109 49 147t156 38h420q109 0 157 -38t48 -147v-952q0 -106 -48.5 -145t-156.5 -39h-420q-106 0 -155.5 39t-49.5 145zM233 90q0 -14 15 -14h600q14 0 14 14v1120q0 15 -14 15h-600q-14 0 -15 -15v-1120zM559 51h86l86 -276h-92z" />
<glyph unicode="R" horiz-adv-x="1046" d="M154 0v1300l542 7h9q107 1 161 -47q56 -50 56 -164v-320q0 -115 -55.5 -163t-170.5 -48l2 23q37 -10 57.5 -41t41.5 -92l157 -455h-96l-190 545q-4 12 -10.5 16t-22.5 4h-424l37 25l2 -590h-96zM225 643h572q25 0 24 25v532q0 25 -24 25h-570l21 24v-633z" />
<glyph unicode="S" horiz-adv-x="954" d="M104 803v287q0 109 60 164q58 53 168 53h8l491 -7v-81h-602q-25 0 -24 -25v-473q-1 -25 24 -25h398q115 0 175 -44t60 -152v-295q0 -115 -55 -164q-53 -47 -161 -47h-9l-522 6v82h622q25 0 25 24v480q0 25 -25 24h-407q-115 0 -170.5 39t-55.5 154z" />
<glyph unicode="T" horiz-adv-x="798" d="M10 1219v81h778v-81h-362l20 20v-1239h-94v1239l21 -20h-363z" />
<glyph unicode="U" d="M133 174v1126h100v-1210q0 -14 15 -14h600q14 0 14 14v1210h101v-1126q0 -106 -48 -145t-157 -39h-420q-106 0 -155.5 39t-49.5 145z" />
<glyph unicode="V" horiz-adv-x="1019" d="M25 1300h94l330 -1218h100q6 0 9 3t5 11l346 1204h90l-327 -1124q-23 -82 -43.5 -119t-54 -47t-99.5 -10h-96z" />
<glyph unicode="W" horiz-adv-x="1509" d="M143 172v1128h101v-1210q0 -14 14 -14h432q14 0 15 14v1210h100v-1210q0 -14 14 -14h432q14 0 15 14v1210h100v-1124q0 -106 -48 -146t-157 -40h-248q-92 0 -138 46t-46 138h51q-2 -92 -47 -138t-137 -46h-240q-113 0 -163 38t-50 144z" />
<glyph unicode="X" horiz-adv-x="1101" d="M31 2l268 512q25 45 42 77t38.5 51.5t55.5 27.5t87 8h51q72 0 107 -15.5t58.5 -50t56.5 -98.5l276 -514h-108l-314 606q-2 8 -6 11.5t-12 3.5h-164q-8 0 -12 -3.5t-9 -11.5l-313 -604h-102zM51 1303h109l293 -586q4 -8 7 -11.5t11 -3.5h164q12 1 18 15l287 583h100 l-247 -491q-25 -47 -42.5 -79t-38 -50t-53 -26.5t-86.5 -8.5h-51q-72 0 -108.5 15.5t-59 51.5t-53.5 97z" />
<glyph unicode="Y" horiz-adv-x="1040" d="M31 1303h104l301 -725q6 -14 19 -15h141q12 1 18 15l295 722h101l-273 -659q-25 -61 -45 -96t-52 -49.5t-93 -14.5h-47q-59 0 -93 14.5t-54.5 49.5t-47.5 96zM475 0v537h94v-537h-94z" />
<glyph unicode="Z" horiz-adv-x="968" d="M92 102l692 1100q6 10 3 15.5t-13 5.5h-645v77h623q66 0 97.5 -27.5t31.5 -88.5l-680 -1082q-6 -10 -3 -17t11 -7h668v-78h-652q-61 0 -97 20.5t-36 81.5z" />
<glyph unicode="[" horiz-adv-x="571" d="M143 -348v1741h346v-76h-247v-1589h247v-76h-346z" />
<glyph unicode="\" horiz-adv-x="753" d="M10 1382h94l639 -1579h-96z" />
<glyph unicode="]" horiz-adv-x="571" d="M82 -272h248v1589h-248v76h346v-1741h-346v76z" />
<glyph unicode="^" horiz-adv-x="849" d="M102 793l293 589h58l295 -589h-86l-246 503h14l-244 -503h-84z" />
<glyph unicode="_" horiz-adv-x="884" d="M41 -96h803v-74h-803v74z" />
<glyph unicode="`" horiz-adv-x="516" d="M96 1389l178 -254h80l-141 256z" />
<glyph unicode="a" horiz-adv-x="817" d="M72 174v205q0 109 49 146.5t155 37.5h353v-74h-449q-14 0 -14 -14v-395q0 -14 14 -14h434v847q0 14 -14 15h-481v76h385q109 0 157 -38t48 -147v-819h-78l-17 66l15 88q0 -92 -36 -128t-128 -36h-189q-106 0 -155 39t-49 145z" />
<glyph unicode="b" horiz-adv-x="860" d="M123 0v1382h92v-444l-14 -88q0 92 35.5 128t128.5 36h188q109 0 157 -38t48 -147v-651q0 -106 -48 -146q-46 -38 -147 -38h-10zM201 74l448 -6q14 0 15 14v842q0 14 -15 14h-420q-14 0 -14 -14v-865z" />
<glyph unicode="c" horiz-adv-x="663" d="M102 174v655q0 109 49.5 147t155.5 38h320v-76h-416q-14 0 -14 -14v-844q0 -14 14 -14h416v-76h-320q-106 0 -155.5 39t-49.5 145z" />
<glyph unicode="d" horiz-adv-x="860" d="M102 174v651q0 109 50 148q47 37 145 37h10l338 -4v376h92v-1382h-75l-17 66l14 88q0 -92 -35.5 -128t-127.5 -36h-189q-106 0 -155.5 39t-49.5 145zM197 80q0 -14 14 -14h420q14 0 14 14v864l14 -14l-448 6q-14 0 -14 -14v-842z" />
<glyph unicode="e" horiz-adv-x="837" d="M109 174v655q0 109 43 147t149 38h240q109 0 156.5 -38t47.5 -147v-423h-557v73h463v445q0 14 -14 14h-420q-14 0 -14 -14v-844q0 -14 14 -14h508v-76h-412q-106 0 -155 39t-49 145z" />
<glyph unicode="f" horiz-adv-x="567" d="M53 930v74h154l-21 -21v225q0 109 49.5 147t155.5 38h197v-76h-295q-14 0 -14 -14v-320l-21 21h299v-74h-299l21 20v-950h-93v950l21 -20h-154z" />
<glyph unicode="g" horiz-adv-x="829" d="M102 174v651q0 109 50 148q47 37 145 37h10l430 -6v-1219q0 -106 -48 -145t-157 -39h-401v75h500q14 0 14 15v375l14 88q0 -92 -35.5 -128t-127.5 -36h-189q-106 0 -155.5 39t-49.5 145zM197 80q0 -14 14 -14h420q14 0 14 14v864l14 -14l-448 6q-14 0 -14 -14v-842z" />
<glyph unicode="h" horiz-adv-x="866" d="M123 0v1382h92v-444l-25 -88q0 92 41.5 128t133.5 36h188q109 0 157 -38t48 -147v-829h-92v924q0 14 -15 14h-422q-14 0 -14 -14v-924h-92z" />
<glyph unicode="i" horiz-adv-x="378" d="M143 0v1004h93v-1004h-93zM143 1243v113h93v-113h-93z" />
<glyph unicode="j" horiz-adv-x="368" d="M-63 -324h192q14 0 14 15v1313h93v-1219q0 -106 -48.5 -145t-156.5 -39h-94v75zM143 1243v113h93v-113h-93z" />
<glyph unicode="k" horiz-adv-x="872" d="M150 0v1382h90v-1382h-90zM215 483v54h279q72 0 106.5 -13.5t56 -49.5t48.5 -101l157 -373h-92l-195 469q-2 8 -5 11t-9 3h-346zM215 504v53h315q8 0 15 14l153 433h84l-116 -336q-23 -68 -44.5 -103t-58 -48t-108.5 -13h-240z" />
<glyph unicode="l" horiz-adv-x="378" d="M143 0v1382h93v-1382h-93z" />
<glyph unicode="m" horiz-adv-x="1347" d="M102 0v1004h76l17 -66l-25 -88q0 92 41 128t133 36h168q109 0 157 -38t48 -147v-829h-92v924q0 14 -15 14h-401q-14 0 -14 -14v-924h-93zM692 850q0 92 41 128t133 36h168q109 0 157 -38t48 -147v-829h-92v924q0 14 -14 14h-402q-14 0 -14 -14v-95z" />
<glyph unicode="n" horiz-adv-x="866" d="M123 0v1004h76l16 -66l-25 -88q0 92 41.5 128t133.5 36h188q109 0 157 -38t48 -147v-829h-92v924q0 14 -15 14h-422q-14 0 -14 -14v-924h-92z" />
<glyph unicode="o" horiz-adv-x="864" d="M102 174v655q0 109 49.5 147t155.5 38h250q109 0 157 -38t48 -147v-655q0 -106 -48 -145t-157 -39h-250q-106 0 -155.5 39t-49.5 145zM197 80q0 -14 14 -14h442q14 0 15 14v844q-1 14 -15 14h-442q-14 0 -14 -14v-844z" />
<glyph unicode="p" horiz-adv-x="860" d="M123 -389v1393h76l16 -66l-14 -88q0 92 35.5 128t128.5 36h188q109 0 157 -38t48 -147v-651q0 -106 -48 -146q-46 -38 -147 -38h-10l-338 6v-389h-92zM201 74l448 -6q14 0 15 14v842q0 14 -15 14h-420q-14 0 -14 -14v-865z" />
<glyph unicode="q" horiz-adv-x="860" d="M102 174v651q0 109 50 148q47 37 145 37h10l430 -6v-1393h-92v455l14 88q0 -92 -35.5 -128t-127.5 -36h-189q-106 0 -155.5 39t-49.5 145zM197 80q0 -14 14 -14h420q14 0 14 14v864l14 -14l-448 6q-14 0 -14 -14v-842z" />
<glyph unicode="r" horiz-adv-x="514" d="M123 0v1004h76l16 -66l-25 -88q0 92 41.5 128t133.5 36h145v-76h-281q-14 0 -14 -14v-924h-92z" />
<glyph unicode="s" horiz-adv-x="737" d="M72 659v170q0 109 49 147t155 38h369v-76h-465q-14 0 -14 -14v-361q0 -14 14 -14h301q109 0 157 -38t48 -146v-191q0 -106 -48 -145t-157 -39h-397v76h494q14 0 14 14v381q0 14 -14 14h-302q-106 0 -155 39t-49 145z" />
<glyph unicode="t" horiz-adv-x="520" d="M49 930v74h154l-21 -21v277h92v-277l-20 21h266v-74h-266l20 20v-860q0 -14 15 -14h231v-76h-133q-106 0 -155.5 39t-49.5 145v766l21 -20h-154z" />
<glyph unicode="u" horiz-adv-x="870" d="M111 174v830h92v-924q0 -14 14 -14h438v938h93v-1004h-76l-17 66l15 88q0 -92 -36 -128t-128 -36h-191q-106 0 -155 39t-49 145z" />
<glyph unicode="v" horiz-adv-x="800" d="M8 1004h92l226 -938h135q6 0 9 3t5 11l223 924h88l-211 -838q-16 -68 -35.5 -108t-56.5 -55q-29 -12 -80 -12q-13 0 -28 1l-121 8z" />
<glyph unicode="w" horiz-adv-x="1341" d="M113 154v850h92v-924q0 -14 14 -14h391q14 0 15 14v924h92v-924q0 -14 14 -14h391q14 0 15 14v924h92v-830q0 -106 -48 -145t-157 -39h-195q-92 0 -138 46t-46 138h51q-2 -92 -47 -138t-137 -46h-195q-106 0 -155 28.5t-49 135.5z" />
<glyph unicode="x" horiz-adv-x="860" d="M20 0l185 356q35 66 54.5 102t52 49t102.5 13v-33q-57 2 -88 17.5t-51.5 50.5t-49.5 96l-164 353h97l209 -449q4 -8 6 -11t8 -3h102q8 0 15 14l209 449h90l-168 -353q-29 -61 -48.5 -96t-49 -50.5t-87.5 -17.5v33q72 0 105 -13t53.5 -49t54.5 -102l189 -356h-103 l-231 453q-6 14 -14 14h-142q-6 0 -8 -3t-6 -11l-221 -453h-101z" />
<glyph unicode="y" horiz-adv-x="866" d="M109 174v830h92v-924q0 -14 14 -14h436v938h92v-1219q0 -106 -48 -145t-156 -39h-404v75h502q14 0 14 15v375l15 88q0 -92 -36 -128t-128 -36h-189q-106 0 -155 39t-49 145z" />
<glyph unicode="z" horiz-adv-x="714" d="M39 102l520 807q6 10 3 15.5t-13 5.5h-469v74h434q66 0 100.5 -28t34.5 -89l-510 -789q-6 -10 -3 -17t11 -7h506v-74h-477q-61 0 -99 20.5t-38 81.5z" />
<glyph unicode="{" horiz-adv-x="608" d="M123 473v100h57q18 0 19 19v606q0 109 54 152t161 43h143v-80h-244q-14 -1 -14 -15v-630q0 -88 -35 -119t-104 -31v10q70 0 104.5 -31.5t34.5 -117.5v-633q0 -14 14 -14h244v-80h-143q-106 0 -160.5 44t-54.5 150v609q0 18 -19 18h-57z" />
<glyph unicode="|" horiz-adv-x="532" d="M225 -113v1495h82v-1495h-82z" />
<glyph unicode="}" horiz-adv-x="608" d="M51 -268h244q14 0 14 14v633q0 86 35 117.5t105 31.5v-10q-70 0 -105 31t-35 119v630q0 14 -14 15h-244v80h144q109 0 162 -43t53 -152v-606q0 -18 18 -19h57v-100h-57q-18 0 -18 -18v-609q0 -106 -53.5 -150t-161.5 -44h-144v80z" />
<glyph unicode="~" horiz-adv-x="823" d="M92 485q0 106 34 146.5t103 40.5q57 0 123 -25.5t125.5 -51.5t97.5 -26q35 0 53.5 22.5t18.5 80.5h84q0 -106 -33.5 -146.5t-103.5 -40.5q-57 0 -121.5 26t-124 51.5t-98.5 25.5q-33 0 -52.5 -23t-19.5 -80h-86z" />
<glyph unicode="&#xa1;" horiz-adv-x="403" d="M154 20l24 623h58l24 -623v-337h-106v337zM156 870v134h102v-134h-102z" />
<glyph unicode="&#xa2;" horiz-adv-x="673" d="M102 307v635q0 109 49.5 146.5t155.5 37.5h330v-75h-426q-14 0 -14 -15v-823q0 -14 14 -14h426v-76h-330q-106 0 -155.5 39t-49.5 145zM346 -31v174h88v-174h-88zM346 1106v174h88v-174h-88z" />
<glyph unicode="&#xa3;" horiz-adv-x="864" d="M92 0v84h117q16 0 16 16v514l21 -20h-154v78h154l-21 -21v393q0 109 49.5 147t155.5 38h352v-84h-446q-14 0 -14 -15v-487l-21 29h408v-78h-408l21 20v-464q0 -31 -11.5 -52.5t-50.5 -21.5v8h533v-84h-701z" />
<glyph unicode="&#xa4;" horiz-adv-x="1155" d="M113 182l174 174l59 -59l-174 -174zM121 1067l59 59l166 -168l-59 -59zM268 446v359q0 109 48.5 143.5t150.5 34.5h233q102 0 150.5 -35t48.5 -143v-359q0 -106 -48 -142t-151 -36h-233q-102 0 -150.5 36t-48.5 142zM362 362q0 -14 15 -14h414q14 0 14 14v527 q0 14 -14 14h-414q-14 0 -15 -14v-527zM809 297l59 59l174 -174l-59 -59zM809 958l174 175l59 -60l-174 -174z" />
<glyph unicode="&#xa5;" horiz-adv-x="1069" d="M72 1231h104l285 -674q6 -14 18 -14h121q12 0 18 14l279 672h100l-260 -608q-23 -53 -41 -85t-42.5 -45.5t-69.5 -17.5v-473h-95v473q-66 4 -93 35t-62 113zM211 266v74h297v-74h-297zM211 469v74h297v-74h-297zM567 266v74h297v-74h-297zM567 469v74h297v-74h-297z" />
<glyph unicode="&#xa6;" horiz-adv-x="573" d="M246 -113v574h82v-574h-82zM246 809v573h82v-573h-82z" />
<glyph unicode="&#xa7;" horiz-adv-x="890" d="M102 641v449q0 72 27 121t79 73.5t128 22.5l426 -7v-81h-537q-25 0 -24 -25v-303q0 -25 26 -37l410 -174q55 -23 89 -43.5t48 -53t14 -94.5v-448q0 -72 -26.5 -121t-77.5 -72.5t-129 -23.5l-426 6v82h537q25 0 24 25v303q0 25 -26 36l-410 175q-55 25 -88 44t-48.5 52 t-15.5 94zM190 772l11 6v-145q0 -37 5 -51.5t32 -24.5l464 -199l-12 -6v146q0 37 -5 51t-32 24z" />
<glyph unicode="&#xa8;" horiz-adv-x="659" d="M102 1190v143h111v-143h-111zM446 1190v143h111v-143h-111z" />
<glyph unicode="&#xa9;" horiz-adv-x="1042" d="M154 559v574q0 102 46 140t152 38h338q109 0 154 -38t45 -140v-574q0 -102 -45 -140t-154 -38h-338q-106 0 -152 38t-46 140zM242 465q0 -14 14 -14h530q14 0 15 14v762q-1 14 -15 14h-530q-14 0 -14 -14v-762zM332 700v291q0 102 46 139t146 37h193v-69h-283 q-14 0 -14 -15v-475q0 -14 14 -14h283v-70h-193q-100 0 -146 38t-46 138z" />
<glyph unicode="&#xaa;" horiz-adv-x="655" d="M82 819v62q0 109 44 146.5t150 37.5h209v-68h-305q-14 0 -14 -14v-264q0 -14 14 -14h291v573q0 14 -14 14h-338v70h241q72 0 114 -16.5t60.5 -56.5t18.5 -111v-533h-66l-16 60l14 94q0 -92 -35.5 -128t-127.5 -36h-46q-106 0 -150 39t-44 145z" />
<glyph unicode="&#xab;" horiz-adv-x="708" d="M81 518q-1 10 13 29l228 317h90l-222 -325q-10 -18 0 -33l213 -328h-92l-217 314q-12 16 -13 26zM331 518q-1 10 11 29l221 317h94l-219 -325q-10 -18 0 -33l211 -328h-96l-211 314q-10 16 -11 26z" />
<glyph unicode="&#xac;" horiz-adv-x="1044" d="M82 573v76h840v-332h-86v256h-754z" />
<glyph unicode="&#xad;" horiz-adv-x="649" d="M72 537v77h506v-77h-506z" />
<glyph unicode="&#xae;" horiz-adv-x="1062" d="M154 559v574q0 102 46 140t152 38h359q109 0 153.5 -38t44.5 -140v-574q0 -102 -45 -140t-153 -38h-359q-106 0 -152 38t-46 140zM242 465q0 -14 14 -14h551q14 0 14 14v762q0 14 -14 14h-551q-14 0 -14 -14v-762zM328 504v663l231 7q100 4 146.5 -42.5t46.5 -136.5v-37 q0 -94 -42 -138t-110 -44v23q51 -8 68.5 -38t40.5 -102l51 -155h-84l-82 252q-2 10 -9 15t-24 5h-184l37 25l2 -297h-88zM391 848h248q25 0 25 24v205q0 25 -25 25h-246l21 24v-305z" />
<glyph unicode="&#xaf;" horiz-adv-x="741" d="M123 1206v76h495v-76h-495z" />
<glyph unicode="&#xb0;" horiz-adv-x="565" d="M72 924v245q0 72 36.5 107t120.5 35h105q84 0 122 -35t38 -107v-245q0 -70 -38 -106t-122 -36h-105q-84 0 -120.5 36t-36.5 106zM154 866q0 -14 14 -14h229q14 0 15 14v361q-1 14 -15 14h-229q-14 0 -14 -14v-361z" />
<glyph unicode="&#xb1;" horiz-adv-x="1064" d="M123 96v82h819v-82h-819zM123 629v82h819v-82h-819zM489 303v733h86v-733h-86z" />
<glyph unicode="&#xb2;" horiz-adv-x="638" d="M84 510v248q0 57 20.5 74.5t71.5 41.5l268 127q10 4 14.5 8.5t4.5 12.5v199q0 14 -17 14h-340v65l295 7q72 2 108 -33t36 -100v-138q0 -45 -17.5 -66.5t-66.5 -43.5l-273 -127q-14 -8 -18 -15.5t-4 -29.5v-179h379v-65h-461z" />
<glyph unicode="&#xb3;" horiz-adv-x="679" d="M51 510v65h369q14 0 14 15v287q0 14 -14 14h-299v65h291q16 0 16 15v250q0 14 -16 14h-355v65l316 7q72 2 104.5 -28t32.5 -101v-152q0 -66 -37 -91.5t-106 -25.5l12 25q70 2 103.5 -21.5t33.5 -93.5v-180q0 -66 -36 -98.5t-107 -32.5z" />
<glyph unicode="&#xb4;" horiz-adv-x="512" d="M127 1135h76l162 254l-115 2z" />
<glyph unicode="&#xb5;" horiz-adv-x="870" d="M111 -389v1393h92v-924q0 -14 14 -14h438v938h93v-1004h-76l-17 66l15 88q0 -92 -36 -128t-128 -36h-191q-63 0 -95 9t-48 36h21l10 -424h-92z" />
<glyph unicode="&#xb6;" horiz-adv-x="944" d="M82 922v174q0 115 55.5 164t169.5 47l484 -7v-1300h-93v1251l27 -26h-186l26 26v-1251h-92l2 737l27 -26h-195q-76 0 -126 20.5t-74.5 67.5t-24.5 123z" />
<glyph unicode="&#xb7;" horiz-adv-x="339" d="M96 512v178h148v-178h-148z" />
<glyph unicode="&#xb8;" horiz-adv-x="507" d="M119 -328h198q15 1 15 15v116q0 14 -15 15h-172l45 198l62 -8l-25 -119h31q78 0 121 -28.5t43 -102.5v-4q0 -164 -182 -164h-121v82z" />
<glyph unicode="&#xb9;" horiz-adv-x="626" d="M70 1139l241 161h80v-790h-82v717l13 -6l-213 -140zM90 510v65h471v-65h-471z" />
<glyph unicode="&#xba;" horiz-adv-x="692" d="M92 819v363q0 109 48 146.5t149 37.5h114q102 0 149.5 -38t47.5 -146v-363q0 -106 -47 -145t-150 -39h-114q-100 0 -148.5 39t-48.5 145zM178 719q0 -14 15 -14h307q14 0 14 14v563q0 14 -14 14h-307q-14 0 -15 -14v-563z" />
<glyph unicode="&#xbb;" horiz-adv-x="708" d="M20 178l220 326q10 18 0 33l-211 327h96l211 -313q10 -16 11 -26.5t-11 -28.5l-221 -318h-95zM266 178l221 326q10 18 0 33l-213 327h93l217 -313q12 -16 13 -26.5t-13 -28.5l-228 -318h-90z" />
<glyph unicode="&#xbc;" horiz-adv-x="1529" d="M70 1139l241 161h80v-790h-82v717l13 -6l-213 -140zM90 510v65h471v-65h-471zM403 -10l688 1321h88l-686 -1321h-90zM829 186v56l268 460q29 49 48.5 68.5t82.5 19.5h101v-544l-6 6h114v-66h-114l6 6v-192h-82v192l6 -6h-424zM909 252h344l-6 -6v479h-47q-7 0 -13 -8 l-272 -471z" />
<glyph unicode="&#xbd;" horiz-adv-x="1474" d="M70 1139l241 161h80v-790h-82v717l13 -6l-213 -140zM90 510v65h471v-65h-471zM389 -10l688 1321h88l-686 -1321h-90zM920 0v248q0 57 20.5 74.5t71.5 41.5l268 127q10 4 14.5 8.5t4.5 12.5v199q0 14 -17 14h-340v65l295 7q72 2 108 -33t36 -100v-138q0 -45 -17.5 -66.5 t-66.5 -43.5l-273 -127q-14 -8 -18 -15.5t-4 -29.5v-179h379v-65h-461z" />
<glyph unicode="&#xbe;" horiz-adv-x="1531" d="M51 510v65h369q14 0 14 15v287q0 14 -14 14h-299v65h291q16 0 16 15v250q0 14 -16 14h-355v65l316 7q72 2 104.5 -28t32.5 -101v-152q0 -66 -37 -91.5t-106 -25.5l12 25q70 2 103.5 -21.5t33.5 -93.5v-180q0 -66 -36 -98.5t-107 -32.5zM403 -10l688 1321h88l-686 -1321 h-90zM831 186v56l268 460q29 49 48.5 68.5t82.5 19.5h101v-544l-6 6h114v-66h-114l6 6v-192h-82v192l6 -6h-424zM911 252h344l-6 -6v479h-47q-7 0 -13 -8l-272 -471z" />
<glyph unicode="&#xbf;" horiz-adv-x="761" d="M147 -102v227q0 59 39 97t103 106l123 131q23 23 30 41t7 55v162h98v-166q0 -45 -11.5 -71.5t-37 -53.5t-68.5 -72l-166 -170q-10 -10 -13 -15t-3 -19v-349q0 -14 14 -14h424v-84h-324q-106 0 -160.5 44t-54.5 151zM446 870v134h103v-134h-103z" />
<glyph unicode="&#xc0;" horiz-adv-x="1042" d="M31 0l334 1135q20 70 38.5 104.5t52 47.5t103.5 13h113l342 -1300h-96l-101 389l25 -20h-637l26 20l-110 -389h-90zM229 451h592l-16 -21l-203 789h-119q-8 0 -11 -4.5t-5 -10.5l-223 -774zM348 1645l178 -254h80l-141 256z" />
<glyph unicode="&#xc1;" horiz-adv-x="1042" d="M31 0l334 1135q20 70 38.5 104.5t52 47.5t103.5 13h113l342 -1300h-96l-101 389l25 -20h-637l26 20l-110 -389h-90zM229 451h592l-16 -21l-203 789h-119q-8 0 -11 -4.5t-5 -10.5l-223 -774zM504 1391h76l162 254l-115 2z" />
<glyph unicode="&#xc2;" horiz-adv-x="1042" d="M31 0l334 1135q20 70 38.5 104.5t52 47.5t103.5 13h113l342 -1300h-96l-101 389l25 -20h-637l26 20l-110 -389h-90zM229 451h592l-16 -21l-203 789h-119q-8 0 -11 -4.5t-5 -10.5l-223 -774zM299 1391l184 245h115l174 -245h-101l-137 204h12l-151 -204h-96z" />
<glyph unicode="&#xc3;" horiz-adv-x="1042" d="M31 0l334 1135q20 70 38.5 104.5t52 47.5t103.5 13h113l342 -1300h-96l-101 389l25 -20h-637l26 20l-110 -389h-90zM229 451h592l-16 -21l-203 789h-119q-8 0 -11 -4.5t-5 -10.5l-223 -774zM303 1456q0 86 26.5 120t80.5 34q49 0 92 -18.5t83 -38t76 -19.5 q31 0 43.5 15.5t12.5 60.5h78q0 -94 -31 -124t-84 -30q-47 0 -91 19.5t-84 38t-75 18.5q-20 0 -34.5 -15.5t-14.5 -60.5h-78z" />
<glyph unicode="&#xc4;" horiz-adv-x="1042" d="M31 0l334 1135q20 70 38.5 104.5t52 47.5t103.5 13h113l342 -1300h-96l-101 389l25 -20h-637l26 20l-110 -389h-90zM229 451h592l-16 -21l-203 789h-119q-8 0 -11 -4.5t-5 -10.5l-223 -774zM325 1446v143h111v-143h-111zM669 1446v143h111v-143h-111z" />
<glyph unicode="&#xc5;" horiz-adv-x="1042" d="M31 0l334 1135q20 70 38.5 104.5t52 47.5t103.5 13h113l342 -1300h-96l-101 389l25 -20h-637l26 20l-110 -389h-90zM229 451h592l-16 -21l-203 789h-119q-8 0 -11 -4.5t-5 -10.5l-223 -774zM387 1526q0 88 34 124t128 36q96 0 132 -36t36 -124q0 -82 -36 -121t-132 -39 q-94 0 -128 39t-34 121zM455 1526q0 -57 14.5 -82t79.5 -25q70 0 85 24.5t15 82.5q0 66 -15 86t-85 20q-66 0 -80 -20t-14 -86z" />
<glyph unicode="&#xc6;" horiz-adv-x="1542" d="M8 0l500 1135q31 68 51.5 103.5t54 48.5t103.5 13h733v-81h-598l20 20v-565l-20 22h565v-82h-565l20 21v-574l-20 21h608v-82h-682v430l21 -20h-537l29 20l-187 -430h-96zM297 492h502l-21 -21v768l21 -20h-152q-8 0 -11 -3.5t-7 -11.5l-320 -733z" />
<glyph unicode="&#xc7;" horiz-adv-x="864" d="M133 184v932q0 109 49 146.5t156 37.5h475v-86h-565q-14 0 -15 -14v-1100q0 -14 15 -14h565v-86h-475q-106 0 -155.5 39t-49.5 145zM365 -328h198q15 1 15 15v116q0 14 -15 15h-172l45 198l62 -8l-25 -119h31q78 0 121 -28.5t43 -102.5v-4q0 -164 -182 -164h-121v82z" />
<glyph unicode="&#xc8;" horiz-adv-x="917" d="M154 0v1300h682v-81h-609l21 20v-555l-21 21h576v-82h-576l21 20v-582l-21 21h619v-82h-692zM307 1645l178 -254h80l-141 256z" />
<glyph unicode="&#xc9;" horiz-adv-x="917" d="M154 0v1300h682v-81h-609l21 20v-555l-21 21h576v-82h-576l21 20v-582l-21 21h619v-82h-692zM463 1391h76l162 254l-115 2z" />
<glyph unicode="&#xca;" horiz-adv-x="917" d="M154 0v1300h682v-81h-609l21 20v-555l-21 21h576v-82h-576l21 20v-582l-21 21h619v-82h-692zM259 1391l184 245h115l174 -245h-101l-137 204h12l-151 -204h-96z" />
<glyph unicode="&#xcb;" horiz-adv-x="917" d="M154 0v1300h682v-81h-609l21 20v-555l-21 21h576v-82h-576l21 20v-582l-21 21h619v-82h-692zM284 1446v143h111v-143h-111zM628 1446v143h111v-143h-111z" />
<glyph unicode="&#xcc;" horiz-adv-x="462" d="M26 1645l178 -254h80l-141 256zM184 0v1300h95v-1300h-95z" />
<glyph unicode="&#xcd;" horiz-adv-x="462" d="M184 0v1300h95v-1300h-95zM190 1391h76l162 254l-115 2z" />
<glyph unicode="&#xce;" horiz-adv-x="462" d="M-22 1391l184 245h115l174 -245h-101l-137 204h12l-151 -204h-96zM184 0v1300h95v-1300h-95z" />
<glyph unicode="&#xcf;" horiz-adv-x="462" d="M4 1446v143h111v-143h-111zM184 0v1300h95v-1300h-95zM348 1446v143h111v-143h-111z" />
<glyph unicode="&#xd0;" horiz-adv-x="1064" d="M29 621v77h506v-77h-506zM154 -2v1302l553 11q115 2 170 -49.5t55 -165.5v-891q0 -115 -60.5 -166t-175.5 -49zM248 76h559q25 0 24 24v1100q1 25 -24 25h-559v-1149z" />
<glyph unicode="&#xd1;" horiz-adv-x="1136" d="M152 0v1300h63l719 -1150l-35 -29v1179h86v-1300h-63l-719 1151l35 29v-1180h-86zM321 1456q0 86 26.5 120t80.5 34q49 0 92 -18.5t83 -38t76 -19.5q31 0 43.5 15.5t12.5 60.5h78q0 -94 -31 -124t-84 -30q-47 0 -91 19.5t-84 38t-75 18.5q-20 0 -34.5 -15.5t-14.5 -60.5 h-78z" />
<glyph unicode="&#xd2;" d="M133 174v952q0 109 49 147t156 38h420q109 0 157 -38t48 -147v-952q0 -106 -48.5 -145t-156.5 -39h-420q-106 0 -155.5 39t-49.5 145zM233 90q0 -14 15 -14h600q14 0 14 14v1120q0 15 -14 15h-600q-14 0 -15 -15v-1120zM348 1645l178 -254h80l-141 256z" />
<glyph unicode="&#xd3;" d="M133 174v952q0 109 49 147t156 38h420q109 0 157 -38t48 -147v-952q0 -106 -48.5 -145t-156.5 -39h-420q-106 0 -155.5 39t-49.5 145zM233 90q0 -14 15 -14h600q14 0 14 14v1120q0 15 -14 15h-600q-14 0 -15 -15v-1120zM504 1391h76l162 254l-115 2z" />
<glyph unicode="&#xd4;" d="M133 174v952q0 109 49 147t156 38h420q109 0 157 -38t48 -147v-952q0 -106 -48.5 -145t-156.5 -39h-420q-106 0 -155.5 39t-49.5 145zM233 90q0 -14 15 -14h600q14 0 14 14v1120q0 15 -14 15h-600q-14 0 -15 -15v-1120zM299 1391l184 245h115l174 -245h-101l-137 204h12 l-151 -204h-96z" />
<glyph unicode="&#xd5;" d="M133 174v952q0 109 49 147t156 38h420q109 0 157 -38t48 -147v-952q0 -106 -48.5 -145t-156.5 -39h-420q-106 0 -155.5 39t-49.5 145zM233 90q0 -14 15 -14h600q14 0 14 14v1120q0 15 -14 15h-600q-14 0 -15 -15v-1120zM303 1456q0 86 26.5 120t80.5 34q49 0 92 -18.5 t83 -38t76 -19.5q31 0 43.5 15.5t12.5 60.5h78q0 -94 -31 -124t-84 -30q-47 0 -91 19.5t-84 38t-75 18.5q-20 0 -34.5 -15.5t-14.5 -60.5h-78z" />
<glyph unicode="&#xd6;" d="M133 174v952q0 109 49 147t156 38h420q109 0 157 -38t48 -147v-952q0 -106 -48.5 -145t-156.5 -39h-420q-106 0 -155.5 39t-49.5 145zM233 90q0 -14 15 -14h600q14 0 14 14v1120q0 15 -14 15h-600q-14 0 -15 -15v-1120zM325 1446v143h111v-143h-111zM669 1446v143h111 v-143h-111z" />
<glyph unicode="&#xd7;" horiz-adv-x="884" d="M123 348l579 580l60 -60l-580 -579zM123 868l59 60l580 -580l-60 -59z" />
<glyph unicode="&#xd8;" d="M133 174v952q0 109 49 147t156 38h420q109 0 157 -38t48 -147v-952q0 -106 -48.5 -145t-156.5 -39h-420q-106 0 -155.5 39t-49.5 145zM145 -98l729 1491h82l-729 -1491h-82zM233 90q0 -14 15 -14h600q14 0 14 14v1120q0 15 -14 15h-600q-14 0 -15 -15v-1120z" />
<glyph unicode="&#xd9;" d="M133 174v1126h100v-1210q0 -14 15 -14h600q14 0 14 14v1210h101v-1126q0 -106 -48 -145t-157 -39h-420q-106 0 -155.5 39t-49.5 145zM346 1645l178 -254h80l-141 256z" />
<glyph unicode="&#xda;" d="M133 174v1126h100v-1210q0 -14 15 -14h600q14 0 14 14v1210h101v-1126q0 -106 -48 -145t-157 -39h-420q-106 0 -155.5 39t-49.5 145zM502 1391h76l162 254l-115 2z" />
<glyph unicode="&#xdb;" d="M133 174v1126h100v-1210q0 -14 15 -14h600q14 0 14 14v1210h101v-1126q0 -106 -48 -145t-157 -39h-420q-106 0 -155.5 39t-49.5 145zM297 1391l184 245h115l174 -245h-101l-137 204h12l-151 -204h-96z" />
<glyph unicode="&#xdc;" d="M133 174v1126h100v-1210q0 -14 15 -14h600q14 0 14 14v1210h101v-1126q0 -106 -48 -145t-157 -39h-420q-106 0 -155.5 39t-49.5 145zM323 1446v143h111v-143h-111zM667 1446v143h111v-143h-111z" />
<glyph unicode="&#xdd;" horiz-adv-x="1040" d="M31 1303h104l301 -725q6 -14 19 -15h141q12 1 18 15l295 722h101l-273 -659q-25 -61 -45 -96t-52 -49.5t-93 -14.5h-47q-59 0 -93 14.5t-54.5 49.5t-47.5 96zM471 1391h76l162 254l-115 2zM475 0v537h94v-537h-94z" />
<glyph unicode="&#xde;" horiz-adv-x="1007" d="M154 0v1300h94v-258l-25 19h467q115 0 170 -46t55 -161v-348q0 -76 -24.5 -123t-73.5 -67.5t-127 -20.5h-467l25 24l2 -319h-96zM223 377h568q25 0 24 24v553q0 25 -24 25h-568l25 25v-654z" />
<glyph unicode="&#xdf;" horiz-adv-x="913" d="M39 930v74h141l-20 -21v113q0 115 54 163t163 48h178q115 0 170 -48.5t55 -162.5v-219q0 -106 -57 -148.5t-172 -42.5l41 39q115 2 167 -39t52 -149v-326q0 -106 -59.5 -161.5t-176.5 -55.5h-219v76h336q25 0 25 24v547q0 25 -25 25h-336v75h306q12 0 18 6.5t6 18.5v440 q0 25 -24 25h-386q-25 0 -24 -25v-1206h-92v950l20 -20h-141z" />
<glyph unicode="&#xe0;" horiz-adv-x="817" d="M72 174v205q0 109 49 146.5t155 37.5h353v-74h-449q-14 0 -14 -14v-395q0 -14 14 -14h434v847q0 14 -14 15h-481v76h385q109 0 157 -38t48 -147v-819h-78l-17 66l15 88q0 -92 -36 -128t-128 -36h-189q-106 0 -155 39t-49 145zM198 1389l178 -254h80l-141 256z" />
<glyph unicode="&#xe1;" horiz-adv-x="817" d="M72 174v205q0 109 49 146.5t155 37.5h353v-74h-449q-14 0 -14 -14v-395q0 -14 14 -14h434v847q0 14 -14 15h-481v76h385q109 0 157 -38t48 -147v-819h-78l-17 66l15 88q0 -92 -36 -128t-128 -36h-189q-106 0 -155 39t-49 145zM354 1135h76l162 254l-115 2z" />
<glyph unicode="&#xe2;" horiz-adv-x="817" d="M72 174v205q0 109 49 146.5t155 37.5h353v-74h-449q-14 0 -14 -14v-395q0 -14 14 -14h434v847q0 14 -14 15h-481v76h385q109 0 157 -38t48 -147v-819h-78l-17 66l15 88q0 -92 -36 -128t-128 -36h-189q-106 0 -155 39t-49 145zM150 1135l184 245h115l174 -245h-101 l-137 204h12l-151 -204h-96z" />
<glyph unicode="&#xe3;" horiz-adv-x="817" d="M72 174v205q0 109 49 146.5t155 37.5h353v-74h-449q-14 0 -14 -14v-395q0 -14 14 -14h434v847q0 14 -14 15h-481v76h385q109 0 157 -38t48 -147v-819h-78l-17 66l15 88q0 -92 -36 -128t-128 -36h-189q-106 0 -155 39t-49 145zM154 1200q0 86 26.5 120t80.5 34 q49 0 92 -18.5t83 -38t76 -19.5q31 0 43.5 15.5t12.5 60.5h78q0 -94 -31 -124t-84 -30q-47 0 -91 19.5t-84 38t-75 18.5q-20 0 -34.5 -15.5t-14.5 -60.5h-78z" />
<glyph unicode="&#xe4;" horiz-adv-x="817" d="M72 174v205q0 109 49 146.5t155 37.5h353v-74h-449q-14 0 -14 -14v-395q0 -14 14 -14h434v847q0 14 -14 15h-481v76h385q109 0 157 -38t48 -147v-819h-78l-17 66l15 88q0 -92 -36 -128t-128 -36h-189q-106 0 -155 39t-49 145zM176 1190v143h111v-143h-111zM520 1190v143 h111v-143h-111z" />
<glyph unicode="&#xe5;" horiz-adv-x="817" d="M72 174v205q0 109 49 146.5t155 37.5h353v-74h-449q-14 0 -14 -14v-395q0 -14 14 -14h434v847q0 14 -14 15h-481v76h385q109 0 157 -38t48 -147v-819h-78l-17 66l15 88q0 -92 -36 -128t-128 -36h-189q-106 0 -155 39t-49 145zM237 1270q0 88 34 124t128 36q96 0 132 -36 t36 -124q0 -82 -36 -121t-132 -39q-94 0 -128 39t-34 121zM305 1270q0 -57 14.5 -82t79.5 -25q70 0 85 24.5t15 82.5q0 66 -15 86t-85 20q-66 0 -80 -20t-14 -86z" />
<glyph unicode="&#xe6;" horiz-adv-x="1343" d="M72 174v164q0 109 49 146.5t155 37.5h353v-73h-449q-14 0 -14 -15v-354q0 -14 14 -14h449q-10 -41 -47 -58.5t-103 -17.5h-203q-106 0 -155 39t-49 145zM119 928v76h385q84 0 127 -26t53 -85h-45q10 70 45 95.5t123 25.5h240q109 0 156.5 -38t47.5 -147v-380h-557v73h463 v402q0 14 -14 14h-420q-14 0 -14 -14v-844q0 -14 14 -14h508v-76h-434q-92 0 -137.5 33.5t-45.5 109.5v780q0 14 -14 15h-481z" />
<glyph unicode="&#xe7;" horiz-adv-x="663" d="M102 174v655q0 109 49.5 147t155.5 38h320v-76h-416q-14 0 -14 -14v-844q0 -14 14 -14h416v-76h-320q-106 0 -155.5 39t-49.5 145zM266 -328h198q15 1 15 15v116q0 14 -15 15h-172l45 198l62 -8l-25 -119h31q78 0 121 -28.5t43 -102.5v-4q0 -164 -182 -164h-121v82z" />
<glyph unicode="&#xe8;" horiz-adv-x="837" d="M109 174v655q0 109 43 147t149 38h240q109 0 156.5 -38t47.5 -147v-423h-557v73h463v445q0 14 -14 14h-420q-14 0 -14 -14v-844q0 -14 14 -14h508v-76h-412q-106 0 -155 39t-49 145zM223 1389l178 -254h80l-141 256z" />
<glyph unicode="&#xe9;" horiz-adv-x="837" d="M109 174v655q0 109 43 147t149 38h240q109 0 156.5 -38t47.5 -147v-423h-557v73h463v445q0 14 -14 14h-420q-14 0 -14 -14v-844q0 -14 14 -14h508v-76h-412q-106 0 -155 39t-49 145zM379 1135h76l162 254l-115 2z" />
<glyph unicode="&#xea;" horiz-adv-x="837" d="M109 174v655q0 109 43 147t149 38h240q109 0 156.5 -38t47.5 -147v-423h-557v73h463v445q0 14 -14 14h-420q-14 0 -14 -14v-844q0 -14 14 -14h508v-76h-412q-106 0 -155 39t-49 145zM175 1135l184 245h115l174 -245h-101l-137 204h12l-151 -204h-96z" />
<glyph unicode="&#xeb;" horiz-adv-x="837" d="M109 174v655q0 109 43 147t149 38h240q109 0 156.5 -38t47.5 -147v-423h-557v73h463v445q0 14 -14 14h-420q-14 0 -14 -14v-844q0 -14 14 -14h508v-76h-412q-106 0 -155 39t-49 145zM200 1190v143h111v-143h-111zM544 1190v143h111v-143h-111z" />
<glyph unicode="&#xec;" horiz-adv-x="378" d="M-15 1389l178 -254h80l-141 256zM143 0v1004h93v-1004h-93z" />
<glyph unicode="&#xed;" horiz-adv-x="378" d="M141 1135h76l162 254l-115 2zM143 0v1004h93v-1004h-93z" />
<glyph unicode="&#xee;" horiz-adv-x="378" d="M-63 1135l184 245h115l174 -245h-101l-137 204h12l-151 -204h-96zM143 0v1004h93v-1004h-93z" />
<glyph unicode="&#xef;" horiz-adv-x="378" d="M-37 1190v143h111v-143h-111zM143 0v1004h93v-1004h-93zM307 1190v143h111v-143h-111z" />
<glyph unicode="&#xf0;" horiz-adv-x="864" d="M102 174v625q0 109 49.5 146.5t155.5 37.5h361l-23 -22v325q0 14 -14 14h-391v76h295q109 0 156.5 -38t47.5 -146v-1018q0 -106 -47.5 -145t-156.5 -39h-228q-106 0 -155.5 39t-49.5 145zM197 80q0 -14 14 -14h420q14 0 14 14v848l21 -21h-455q-14 0 -14 -14v-813z M430 1169l356 228l35 -56l-356 -227z" />
<glyph unicode="&#xf1;" horiz-adv-x="866" d="M123 0v1004h76l16 -66l-25 -88q0 92 41.5 128t133.5 36h188q109 0 157 -38t48 -147v-829h-92v924q0 14 -15 14h-422q-14 0 -14 -14v-924h-92zM205 1200q0 86 26.5 120t80.5 34q49 0 92 -18.5t83 -38t76 -19.5q31 0 43.5 15.5t12.5 60.5h78q0 -94 -31 -124t-84 -30 q-47 0 -91 19.5t-84 38t-75 18.5q-20 0 -34.5 -15.5t-14.5 -60.5h-78z" />
<glyph unicode="&#xf2;" horiz-adv-x="864" d="M102 174v655q0 109 49.5 147t155.5 38h250q109 0 157 -38t48 -147v-655q0 -106 -48 -145t-157 -39h-250q-106 0 -155.5 39t-49.5 145zM197 80q0 -14 14 -14h442q14 0 15 14v844q-1 14 -15 14h-442q-14 0 -14 -14v-844zM229 1389l178 -254h80l-141 256z" />
<glyph unicode="&#xf3;" horiz-adv-x="864" d="M102 174v655q0 109 49.5 147t155.5 38h250q109 0 157 -38t48 -147v-655q0 -106 -48 -145t-157 -39h-250q-106 0 -155.5 39t-49.5 145zM197 80q0 -14 14 -14h442q14 0 15 14v844q-1 14 -15 14h-442q-14 0 -14 -14v-844zM385 1135h76l162 254l-115 2z" />
<glyph unicode="&#xf4;" horiz-adv-x="864" d="M102 174v655q0 109 49.5 147t155.5 38h250q109 0 157 -38t48 -147v-655q0 -106 -48 -145t-157 -39h-250q-106 0 -155.5 39t-49.5 145zM181 1135l184 245h115l174 -245h-101l-137 204h12l-151 -204h-96zM197 80q0 -14 14 -14h442q14 0 15 14v844q-1 14 -15 14h-442 q-14 0 -14 -14v-844z" />
<glyph unicode="&#xf5;" horiz-adv-x="864" d="M102 174v655q0 109 49.5 147t155.5 38h250q109 0 157 -38t48 -147v-655q0 -106 -48 -145t-157 -39h-250q-106 0 -155.5 39t-49.5 145zM184 1200q0 86 26.5 120t80.5 34q49 0 92 -18.5t83 -38t76 -19.5q31 0 43.5 15.5t12.5 60.5h78q0 -94 -31 -124t-84 -30 q-47 0 -91 19.5t-84 38t-75 18.5q-20 0 -34.5 -15.5t-14.5 -60.5h-78zM197 80q0 -14 14 -14h442q14 0 15 14v844q-1 14 -15 14h-442q-14 0 -14 -14v-844z" />
<glyph unicode="&#xf6;" horiz-adv-x="864" d="M102 174v655q0 109 49.5 147t155.5 38h250q109 0 157 -38t48 -147v-655q0 -106 -48 -145t-157 -39h-250q-106 0 -155.5 39t-49.5 145zM197 80q0 -14 14 -14h442q14 0 15 14v844q-1 14 -15 14h-442q-14 0 -14 -14v-844zM206 1190v143h111v-143h-111zM550 1190v143h111 v-143h-111z" />
<glyph unicode="&#xf7;" horiz-adv-x="962" d="M123 567v82h717v-82h-717zM418 197v170h125v-170h-125zM418 850v170h125v-170h-125z" />
<glyph unicode="&#xf8;" horiz-adv-x="864" d="M102 -111l582 1227h80l-582 -1227h-80zM102 174v655q0 109 49.5 147t155.5 38h250q109 0 157 -38t48 -147v-655q0 -106 -48 -145t-157 -39h-250q-106 0 -155.5 39t-49.5 145zM197 80q0 -14 14 -14h442q14 0 15 14v844q-1 14 -15 14h-442q-14 0 -14 -14v-844z" />
<glyph unicode="&#xf9;" horiz-adv-x="870" d="M111 174v830h92v-924q0 -14 14 -14h438v938h93v-1004h-76l-17 66l15 88q0 -92 -36 -128t-128 -36h-191q-106 0 -155 39t-49 145zM223 1389l178 -254h80l-141 256z" />
<glyph unicode="&#xfa;" horiz-adv-x="870" d="M111 174v830h92v-924q0 -14 14 -14h438v938h93v-1004h-76l-17 66l15 88q0 -92 -36 -128t-128 -36h-191q-106 0 -155 39t-49 145zM379 1135h76l162 254l-115 2z" />
<glyph unicode="&#xfb;" horiz-adv-x="870" d="M111 174v830h92v-924q0 -14 14 -14h438v938h93v-1004h-76l-17 66l15 88q0 -92 -36 -128t-128 -36h-191q-106 0 -155 39t-49 145zM175 1135l184 245h115l174 -245h-101l-137 204h12l-151 -204h-96z" />
<glyph unicode="&#xfc;" horiz-adv-x="870" d="M111 174v830h92v-924q0 -14 14 -14h438v938h93v-1004h-76l-17 66l15 88q0 -92 -36 -128t-128 -36h-191q-106 0 -155 39t-49 145zM200 1190v143h111v-143h-111zM544 1190v143h111v-143h-111z" />
<glyph unicode="&#xfd;" horiz-adv-x="866" d="M109 174v830h92v-924q0 -14 14 -14h436v938h92v-1219q0 -106 -48 -145t-156 -39h-404v75h502q14 0 14 15v375l15 88q0 -92 -36 -128t-128 -36h-189q-106 0 -155 39t-49 145zM379 1135h76l162 254l-115 2z" />
<glyph unicode="&#xfe;" horiz-adv-x="860" d="M123 -389v1771h92v-444l-14 -88q0 92 35.5 128t128.5 36h188q109 0 157 -38t48 -147v-651q0 -106 -48 -146t-157 -38l-338 6v-389h-92zM201 74l448 -6q14 0 15 14v842q0 14 -15 14h-420q-14 0 -14 -14v-865z" />
<glyph unicode="&#xff;" horiz-adv-x="866" d="M109 174v830h92v-924q0 -14 14 -14h436v938h92v-1219q0 -106 -48 -145t-156 -39h-404v75h502q14 0 14 15v375l15 88q0 -92 -36 -128t-128 -36h-189q-106 0 -155 39t-49 145zM200 1190v143h111v-143h-111zM544 1190v143h111v-143h-111z" />
<glyph unicode="&#x152;" horiz-adv-x="1583" d="M106 180v940q0 109 49.5 147t155.5 38l1180 -5v-81h-602l20 20v-555l-20 21h569v-82h-571l22 18v-580l-20 21h612v-82l-1190 -4q-106 0 -155.5 39t-49.5 145zM207 96q0 -14 14 -14h615l-21 -21v1178l23 -20h-617q-14 0 -14 -15v-1108z" />
<glyph unicode="&#x153;" horiz-adv-x="1394" d="M102 174v655q0 109 49.5 147t155.5 38h246q109 0 150.5 -38t41.5 -147h-61q2 109 39 147t143 38h232q109 0 157 -38t48 -147v-423h-558v73h463v445q0 14 -14 14h-420q-14 0 -14 -14v-844q0 -14 14 -14h508v-76h-403q-106 0 -149.5 39t-45.5 145h61q0 -106 -41.5 -145 t-150.5 -39h-246q-106 0 -155.5 39t-49.5 145zM197 80q0 -14 14 -14h442q14 0 15 14v844q-1 14 -15 14h-442q-14 0 -14 -14v-844z" />
<glyph unicode="&#x178;" horiz-adv-x="1040" d="M31 1303h104l301 -725q6 -14 19 -15h141q12 1 18 15l295 722h101l-273 -659q-25 -61 -45 -96t-52 -49.5t-93 -14.5h-47q-59 0 -93 14.5t-54.5 49.5t-47.5 96zM292 1446v143h111v-143h-111zM475 0v537h94v-537h-94zM636 1446v143h111v-143h-111z" />
<glyph unicode="&#x2c6;" horiz-adv-x="636" d="M66 1135l184 245h115l174 -245h-101l-137 204h12l-151 -204h-96z" />
<glyph unicode="&#x2dc;" horiz-adv-x="675" d="M88 1200q0 86 26.5 120t80.5 34q49 0 92 -18.5t83 -38t76 -19.5q31 0 43.5 15.5t12.5 60.5h78q0 -94 -31 -124t-84 -30q-47 0 -91 19.5t-84 38t-75 18.5q-20 0 -34.5 -15.5t-14.5 -60.5h-78z" />
<glyph unicode="&#x2000;" horiz-adv-x="843" />
<glyph unicode="&#x2001;" horiz-adv-x="1686" />
<glyph unicode="&#x2002;" horiz-adv-x="843" />
<glyph unicode="&#x2003;" horiz-adv-x="1686" />
<glyph unicode="&#x2004;" horiz-adv-x="562" />
<glyph unicode="&#x2005;" horiz-adv-x="421" />
<glyph unicode="&#x2006;" horiz-adv-x="281" />
<glyph unicode="&#x2007;" horiz-adv-x="281" />
<glyph unicode="&#x2008;" horiz-adv-x="210" />
<glyph unicode="&#x2009;" horiz-adv-x="337" />
<glyph unicode="&#x200a;" horiz-adv-x="93" />
<glyph unicode="&#x2010;" horiz-adv-x="649" d="M72 537v77h506v-77h-506z" />
<glyph unicode="&#x2011;" horiz-adv-x="649" d="M72 537v77h506v-77h-506z" />
<glyph unicode="&#x2012;" horiz-adv-x="649" d="M72 537v77h506v-77h-506z" />
<glyph unicode="&#x2013;" horiz-adv-x="843" d="M41 537v77h762v-77h-762z" />
<glyph unicode="&#x2014;" horiz-adv-x="1228" d="M-2 537v77h1233v-77h-1233z" />
<glyph unicode="&#x2018;" horiz-adv-x="307" d="M102 1055h127v174h-55l6 -8q0 20 11.5 66t37.5 85l-43 33q-43 -45 -63.5 -100.5t-20.5 -102.5v-147z" />
<glyph unicode="&#x2019;" horiz-adv-x="296" d="M78 1065l43 -33q43 47 63.5 102.5t20.5 100.5v147h-127v-174h56l-7 8q0 -20 -11 -65t-38 -86z" />
<glyph unicode="&#x201a;" horiz-adv-x="327" d="M98 4h56l-7 8q0 -20 -11 -65t-38 -86l43 -33q43 47 63.5 102.5t20.5 100.5v147h-127v-174z" />
<glyph unicode="&#x201c;" horiz-adv-x="532" d="M102 1055h127v174h-55l6 -8q0 20 11.5 66t37.5 85l-43 33q-43 -45 -63.5 -100.5t-20.5 -102.5v-147zM307 1055h127v174h-55l6 -8q0 20 11.5 66t37.5 85l-43 33q-43 -45 -63.5 -100.5t-20.5 -102.5v-147z" />
<glyph unicode="&#x201d;" horiz-adv-x="526" d="M92 1065l43 -33q43 47 63.5 102.5t20.5 100.5v147h-127v-174h56l-7 8q0 -20 -11 -65t-38 -86zM297 1065l43 -33q43 47 63.5 102.5t20.5 100.5v147h-127v-174h56l-7 8q0 -20 -11 -65t-38 -86z" />
<glyph unicode="&#x201e;" horiz-adv-x="528" d="M98 12h52l-5 8q0 -20 -11 -63t-36 -82l41 -31q41 43 60.5 96.5t19.5 96.5v141h-121v-166zM305 12h51l-4 8q0 -20 -11 -63t-36 -82l41 -31q41 43 60.5 96.5t19.5 96.5v141h-121v-166z" />
<glyph unicode="&#x2022;" horiz-adv-x="598" d="M184 530v109q0 47 24.5 69.5t78.5 22.5h24q53 0 78 -22.5t25 -69.5v-109q0 -45 -24.5 -68.5t-78.5 -23.5h-24q-53 0 -78 23.5t-25 68.5z" />
<glyph unicode="&#x2026;" horiz-adv-x="1157" d="M143 0v178h133v-178h-133zM512 0v178h133v-178h-133zM881 0v178h133v-178h-133z" />
<glyph unicode="&#x202f;" horiz-adv-x="337" />
<glyph unicode="&#x2039;" horiz-adv-x="464" d="M81 518q-1 10 13 29l228 317h94l-223 -325q-12 -16 0 -33l215 -328h-97l-217 314q-12 16 -13 26z" />
<glyph unicode="&#x203a;" horiz-adv-x="466" d="M51 178l223 326q12 16 0 33l-215 327h97l217 -313q12 -16 13 -26.5t-13 -28.5l-228 -318h-94z" />
<glyph unicode="&#x205f;" horiz-adv-x="421" />
<glyph unicode="&#x20ac;" horiz-adv-x="946" d="M86 475v74h154l-21 -21v185l21 -21h-154v74h154l-21 -21v299q0 109 47 147t154 38h454v-84h-544q-14 0 -15 -15v-393l-20 29h344v-74h-344l20 21v-193l-20 29h344v-74h-344l20 21v-398q0 -14 15 -14h544v-84h-454q-106 0 -153.5 39t-47.5 145v312l21 -21h-154z" />
<glyph unicode="&#x2122;" horiz-adv-x="1292" d="M41 1243v68h465v-68h-199l12 12v-757h-86v757l13 -12h-205zM549 498v813h57q23 0 35 -9.5t27 -37.5l219 -441h-45l250 488h38q49 0 50 -56v-757h-86v764h49l-254 -494h-55l-242 481h41v-751h-84z" />
<glyph unicode="&#x25fc;" horiz-adv-x="1003" d="M0 0v1004h1004v-1004h-1004z" />
</font>
</defs>
</svg>
