<?xml version="1.0" standalone="no"?>
<!DOCTYPE svg PUBLIC "-//W3C//DTD SVG 1.1//EN" "http://www.w3.org/Graphics/SVG/1.1/DTD/svg11.dtd" >
<svg xmlns="http://www.w3.org/2000/svg" xmlns:xlink="http://www.w3.org/1999/xlink" version="1.1">
<metadata></metadata>
<defs>
<font id="farrolight" horiz-adv-x="1429" >
<font-face units-per-em="2048" ascent="1638" descent="-410" />
<missing-glyph horiz-adv-x="491" />
<glyph unicode="&#xfb01;" horiz-adv-x="1437" d="M154 1079v101l131 49q0 242 68.5 342t228.5 100q176 0 262 -33l-21 -118l-35 -21q-61 12 -180 12q-86 0 -122.5 -42t-36.5 -140v-100h804l-10 -297v-625l10 -307h-184l10 307v625l-4 147h-626v-772l10 -307h-185l11 307v772h-131zM1044 1548q0 41 34 70t83 29t83 -29 t34 -70t-34 -68.5t-83 -27.5t-83 27.5t-34 68.5z" />
<glyph horiz-adv-x="1228" />
<glyph horiz-adv-x="1228" />
<glyph unicode="&#xd;" horiz-adv-x="1228" />
<glyph unicode=" "  horiz-adv-x="491" />
<glyph unicode="&#x09;" horiz-adv-x="491" />
<glyph unicode="&#xa0;" horiz-adv-x="491" />
<glyph unicode="!" horiz-adv-x="745" d="M215 125q0 55 45 94t113 39t112.5 -39t44.5 -94t-45 -92t-112 -37q-68 0 -113 37t-45 92zM262 1536h221l-18 -307l-27 -799h-131l-26 799z" />
<glyph unicode="&#x22;" horiz-adv-x="843" d="M154 1608q0 98 96 98t96 -98q0 -53 -17.5 -155.5t-45.5 -203.5h-66q-29 101 -46 203t-17 156zM498 1608q0 98 96 98t96 -98q0 -53 -17.5 -155.5t-45.5 -203.5h-66q-29 101 -46 203t-17 156z" />
<glyph unicode="#" horiz-adv-x="1370" d="M61 295v154h271l61 622h-272v154h287l12 297h184l-47 -297h336l10 297h187l-48 -297h267v-154h-281l-61 -622h282v-154h-297l-10 -307h-182l43 307h-336l-10 -307h-183l43 307h-256zM481 449h336l62 622h-336z" />
<glyph unicode="$" horiz-adv-x="1273" d="M102 330l29 8q98 -84 208 -132t220 -59v533q-231 59 -337.5 163.5t-106.5 272.5q0 186 116.5 302t321.5 134l-4 119h176l-4 -119q121 -14 227.5 -55t169.5 -98l-24 -164l-31 -8q-57 59 -153.5 103t-194.5 56v-557q170 -45 269 -101t143 -132t44 -184 q0 -187 -121.5 -301.5t-330.5 -130.5l6 -170h-176l6 172q-129 10 -233.5 54t-194.5 126zM293 1143q0 -105 58.5 -164t207.5 -107v512q-129 -16 -197.5 -79.5t-68.5 -161.5zM715 147q129 17 203.5 79.5t74.5 158.5q0 66 -23.5 108t-83 75.5t-171.5 68.5v-490z" />
<glyph unicode="%" horiz-adv-x="1763" d="M113 1163q0 406 340 406t340 -406q0 -199 -82 -302t-258 -103q-340 -1 -340 405zM254 0l225 307l633 932l178 297h226l-228 -297l-633 -932l-194 -307h-207zM274 1155q0 -139 45.5 -204.5t133.5 -65.5q90 0 133 65.5t43 204.5q0 143 -43 206.5t-133 63.5t-134.5 -64.5 t-44.5 -205.5zM971 389q0 406 340 406t340 -406q0 -199 -82 -302t-258 -103q-340 -1 -340 405zM1133 381q0 -139 45 -204.5t133 -65.5q90 0 133 65.5t43 204.5q0 143 -43 206.5t-133 63.5t-134 -64.5t-44 -205.5z" />
<glyph unicode="&#x26;" horiz-adv-x="1456" d="M90 332q0 155 78 266t256 193q-74 100 -115 203.5t-41 181.5q0 180 96.5 280t284.5 100t280.5 -92t92.5 -278q0 -135 -82 -235.5t-289 -202.5l283 -342q49 45 109.5 115.5t97.5 131.5l67 162h193q-168 -309 -371 -518q150 -156 285 -156q72 0 123 35l22 -12l-47 -139 q-45 -20 -76.5 -26.5t-81.5 -6.5q-68 0 -147.5 39t-192.5 155q-127 -117 -224 -163t-220 -46q-180 0 -280.5 95.5t-100.5 259.5zM252 352q0 -100 62.5 -159.5t174.5 -59.5q80 0 150 34t178 132q-203 221 -315 381q-139 -72 -194.5 -147.5t-55.5 -180.5zM426 1178 q0 -62 36 -145t105 -175q172 96 236.5 167t64.5 159q0 115 -51 166t-168 51q-119 0 -171 -53.5t-52 -169.5z" />
<glyph unicode="'" horiz-adv-x="499" d="M154 1608q0 98 96 98t96 -98q0 -53 -17.5 -155.5t-45.5 -203.5h-66q-29 101 -46 203t-17 156z" />
<glyph unicode="(" horiz-adv-x="696" d="M195 633q0 276 55 509.5t170 448.5h131l22 -28q-109 -211 -154.5 -426t-45.5 -504q0 -285 50 -509t150 -421l-22 -29h-131q-115 215 -170 448.5t-55 510.5z" />
<glyph unicode=")" horiz-adv-x="696" d="M123 -297q100 197 150.5 421t50.5 509q0 289 -46.5 504t-154.5 426l22 28h131q115 -215 170.5 -448.5t55.5 -509.5t-55.5 -510t-170.5 -449h-131z" />
<glyph unicode="*" horiz-adv-x="741" d="M102 1309q0 29 15.5 50t42.5 21t78 -26.5t98 -55.5q-29 119 -29 168q0 61 64 62q63 0 63 -62q0 -61 -28 -170q133 84 176 84q29 0 43 -22.5t14 -48.5q0 -41 -56.5 -56.5t-156.5 -21.5q63 -51 100 -91t37 -67q0 -25 -22.5 -44t-46.5 -19q-35 0 -60.5 45t-62.5 135 q-39 -92 -64.5 -136t-58.5 -44q-25 0 -47.5 19.5t-22.5 43.5q0 47 135 160q-104 6 -157.5 20.5t-53.5 55.5z" />
<glyph unicode="+" horiz-adv-x="1126" d="M72 553v154h409v446h164v-446h410v-154h-410v-444h-164v444h-409z" />
<glyph unicode="," horiz-adv-x="622" d="M154 125q0 57 45 95t112 38q72 0 115 -42t43 -112q0 -84 -57.5 -194.5t-135.5 -167.5l-55 41l4 8q29 20 57.5 86t32.5 115h-12q-63 0 -106 38t-43 95z" />
<glyph unicode="-" horiz-adv-x="958" d="M123 553v154h713v-154h-713z" />
<glyph unicode="." horiz-adv-x="622" d="M154 125q0 55 45 94t112 39q68 0 113 -39t45 -94t-45 -92t-113 -37q-67 0 -112 37t-45 92z" />
<glyph unicode="/" horiz-adv-x="870" d="M164 -164l78 307l268 1198l55 297h187l-76 -297l-268 -1198l-58 -307h-186z" />
<glyph unicode="0" horiz-adv-x="1282" d="M154 780q0 412 120.5 600.5t366.5 188.5t366.5 -188.5t120.5 -600.5q0 -426 -120.5 -619.5t-366.5 -193.5t-366.5 193.5t-120.5 619.5zM326 768q0 -242 32.5 -381t101 -199.5t181.5 -60.5t181.5 60.5t101 199.5t32.5 381t-32.5 381t-101 199.5t-181.5 60.5t-181.5 -60.5 t-101 -199.5t-32.5 -381z" />
<glyph unicode="1" horiz-adv-x="884" d="M123 928l22 184l392 424h102v-1229l10 -307h-184l10 307v934l-321 -328z" />
<glyph unicode="2" horiz-adv-x="1167" d="M133 0v109l397 505q176 227 242 349t66 213q0 104 -70 160.5t-199 56.5q-121 0 -219 -57.5t-166 -159.5l-22 4l24 198q176 172 402 172q199 0 310.5 -103.5t111.5 -285.5q0 -78 -27 -147.5t-95.5 -172t-215.5 -298.5l-297 -393h456q59 0 125 23.5t111 57.5l18 -8 l-36 -137q-10 -39 -79 -62.5t-188 -23.5h-649z" />
<glyph unicode="3" horiz-adv-x="1146" d="M113 283l22 4q72 -76 171.5 -119t203.5 -43q166 0 254 78t88 223q0 154 -117 238t-327 84h-43v98l366 540h-596l-14 23l61 127h797v-66l-391 -583q213 -35 324.5 -157t111.5 -314q0 -209 -130 -329t-380 -120q-109 0 -209 34t-172 95z" />
<glyph unicode="4" horiz-adv-x="1179" d="M41 350v70l709 1116h143v-1034h215v-152h-215v-43l10 -307h-184l10 307v43h-688zM281 502h448v749z" />
<glyph unicode="5" horiz-adv-x="1187" d="M150 279l22 4q57 -72 159.5 -115t219.5 -43q150 0 232.5 79t82.5 224q0 174 -95 253t-300 79h-274v51l57 725h741l-20 -127l-33 -23h-532l-29 -477h90q293 0 433 -117.5t140 -363.5q0 -137 -58 -241.5t-165.5 -162t-247.5 -57.5q-121 0 -227 34t-176 95z" />
<glyph unicode="6" horiz-adv-x="1234" d="M143 733q0 254 65.5 438.5t187.5 283.5t288 99q119 0 187.5 -20.5t132.5 -71.5l-31 -164l-23 5q-68 53 -125 72.5t-141 19.5q-174 0 -270.5 -144.5t-98.5 -414.5q66 63 166.5 102t198.5 39q197 0 311.5 -128t114.5 -378q0 -152 -57.5 -266.5t-163 -176t-244.5 -61.5 q-176 0 -284.5 77t-161 244t-52.5 445zM315 631q0 -250 81 -377t237 -127q137 0 219 91t82 253q0 174 -81 260t-230 86q-78 0 -175.5 -44t-132.5 -99v-43z" />
<glyph unicode="7" horiz-adv-x="1112" d="M82 1395l35 141h893v-74l-480 -1462h-176l469 1386h-723z" />
<glyph unicode="8" horiz-adv-x="1216" d="M123 367q0 131 61.5 238.5t182.5 178.5q-102 57 -163 148.5t-61 195.5q0 207 122 324t353 117q201 0 320 -107.5t119 -294.5q0 -111 -59.5 -207t-170.5 -167q129 -62 198 -167.5t69 -244.5q0 -195 -127 -304.5t-357 -109.5q-240 0 -363.5 102.5t-123.5 297.5zM287 395 q0 -262 309 -262q160 0 243 65.5t83 190.5q0 111 -100.5 193t-327.5 147q-100 -61 -153.5 -149t-53.5 -185zM315 1161q0 -100 92.5 -177t297.5 -144q84 59 137 149t53 172q0 117 -73.5 182.5t-215.5 65.5q-145 0 -218 -64.5t-73 -183.5z" />
<glyph unicode="9" horiz-adv-x="1234" d="M129 1065q0 152 57.5 266.5t163 176t244.5 61.5q176 0 284.5 -77t161 -244t52.5 -445q0 -254 -65.5 -438.5t-187.5 -283.5t-288 -99q-119 0 -187.5 20.5t-132.5 71.5l31 164l23 -5q68 -53 125 -72.5t141 -19.5q174 0 270.5 144.5t98.5 414.5q-66 -63 -166.5 -102 t-198.5 -39q-197 0 -311.5 128t-114.5 378zM301 1065q0 -174 81 -260t230 -86q78 0 175.5 44t132.5 99v43q0 250 -81 377t-237 127q-137 0 -219 -91t-82 -253z" />
<glyph unicode=":" horiz-adv-x="724" d="M205 125q0 55 45 94t112 39q68 0 113 -39t45 -94t-45 -92t-113 -37q-67 0 -112 37t-45 92zM205 1057q0 55 45 94t112 39q68 0 113 -39t45 -94t-45 -92t-113 -37q-67 0 -112 37t-45 92z" />
<glyph unicode=";" horiz-adv-x="735" d="M205 768q0 55 45 94t112 39q68 0 113 -39t45 -94t-45 -92t-113 -37q-67 0 -112 37t-45 92zM215 125q0 57 45 95t112 38q72 0 115 -42t43 -112q0 -84 -57.5 -194.5t-135.5 -167.5l-55 41l4 8q29 20 57.5 86t32.5 115h-12q-63 0 -106 38t-43 95z" />
<glyph unicode="&#x3c;" horiz-adv-x="1220" d="M119 479v174l962 512l-10 -204l-807 -396l807 -413l10 -185z" />
<glyph unicode="=" horiz-adv-x="1312" d="M164 326v153h983v-153h-983zM164 760v153h983v-153h-983z" />
<glyph unicode="&#x3e;" horiz-adv-x="1220" d="M139 -33l11 185l806 413l-806 396l-11 204l963 -512v-174z" />
<glyph unicode="?" horiz-adv-x="923" d="M133 1270l35 178q119 100 299 100q86 0 157.5 -37.5t113.5 -103.5t42 -145q0 -133 -121 -336q-86 -143 -116.5 -243.5t-30.5 -252.5h-164q0 170 38 297t128 268q78 123 78 217q0 72 -50 116t-132 44q-80 0 -139.5 -26.5t-116.5 -85.5zM285 125q0 55 45 94t112 39 q68 0 113 -39t45 -94t-45 -92t-113 -37q-67 0 -112 37t-45 92z" />
<glyph unicode="@" horiz-adv-x="1619" d="M102 571q0 375 183.5 580t541.5 205q217 0 372 -82t237 -235.5t82 -360.5q0 -467 -306 -467q-172 0 -233 106q-76 -106 -219 -106q-131 0 -211 102.5t-80 272.5q0 182 76 284.5t215 102.5q115 0 192 -47v32h160l-8 -182v-305q0 -74 27.5 -108.5t85.5 -34.5q76 0 110.5 86 t34.5 264q0 260 -137.5 395t-399.5 135q-567 0 -567 -637q0 -305 142.5 -450.5t430.5 -145.5q332 0 465 142l19 -8l-39 -158q-41 -43 -181.5 -83t-267.5 -40q-360 0 -542.5 189.5t-182.5 553.5zM625 586q0 -131 40 -184.5t136 -53.5q49 0 90 27.5t61 73.5v364 q-66 18 -147 18q-70 0 -109 -22.5t-55 -74.5t-16 -148z" />
<glyph unicode="A" horiz-adv-x="1353" d="M86 0l109 307l297 922l86 307h202l82 -307l297 -922l109 -307h-209l-84 307l-31 105l-555 -4l-31 -101l-79 -307h-193zM438 567l459 4l-227 764z" />
<glyph unicode="B" horiz-adv-x="1351" d="M195 0l10 307v932l-10 297h516q137 0 240.5 -54.5t159.5 -150.5t56 -223q0 -100 -40 -178t-115 -125q110 -49 168.5 -135t58.5 -209q0 -219 -137 -340t-393 -121h-514zM373 160h336q168 0 260 79.5t92 221.5q0 133 -83 191.5t-265 58.5h-340v-551zM373 870h272 q184 0 264 55.5t80 182.5q0 135 -82 201.5t-258 66.5h-276v-506z" />
<glyph unicode="C" horiz-adv-x="1259" d="M147 774q0 391 156 593t485 202q125 0 208 -24.5t149 -78.5l-29 -145l-41 -18q-100 100 -287 100q-231 0 -343.5 -150.5t-112.5 -478.5q0 -242 44 -380t142 -199.5t270 -61.5q117 0 191 23.5t143 83.5l35 -17l-37 -145q-154 -111 -332 -111q-235 0 -374.5 82t-203 257 t-63.5 468z" />
<glyph unicode="D" horiz-adv-x="1359" d="M195 0l10 307v932l-10 297h460q197 0 319 -79t180 -246t58 -437q0 -399 -134 -586.5t-423 -187.5h-460zM377 160h278q199 0 286 145.5t87 468.5q0 221 -38 352t-118.5 190.5t-216.5 59.5h-278v-1216z" />
<glyph unicode="E" horiz-adv-x="1181" d="M195 0l10 307v932l-10 297h860l-25 -160h-657v-506h588l-25 -159h-563v-551h696l-25 -160h-849z" />
<glyph unicode="F" horiz-adv-x="1132" d="M195 0l10 307v932l-10 297h860l-25 -160h-657v-506h588l-25 -159h-563v-404l10 -307h-188z" />
<glyph unicode="G" horiz-adv-x="1404" d="M147 774q0 414 151 604.5t468 190.5q102 0 214 -36t202 -99l-29 -160l-41 -19q-53 59 -155.5 103.5t-190.5 44.5q-227 0 -334.5 -150.5t-107.5 -478.5q0 -338 94 -489.5t303 -151.5q182 0 274 133t92 393h-425v160h579v-819h-88l-37 201q-53 -109 -164.5 -171.5 t-251.5 -62.5q-553 0 -553 807z" />
<glyph unicode="H" horiz-adv-x="1394" d="M195 0l10 307v932l-10 297h188l-10 -297v-369h649v371l-10 297h188l-10 -297v-932l10 -307h-188l10 307v402h-649v-404l10 -307h-188z" />
<glyph unicode="I" horiz-adv-x="577" d="M195 0l10 307v932l-10 297h188l-10 -297v-932l10 -307h-188z" />
<glyph unicode="J" horiz-adv-x="620" d="M-51 -297l16 16q31 0 82 44t105.5 122t95.5 174v1180l-10 297h188l-10 -297v-1239q-119 -299 -307 -442z" />
<glyph unicode="K" horiz-adv-x="1298" d="M195 0l10 307v932l-10 297h188l-10 -297v-496l368 496l193 297h254l-246 -297l-297 -387l381 -545l242 -307h-250l-197 307l-276 402l-172 -160v-242l10 -307h-188z" />
<glyph unicode="L" horiz-adv-x="1120" d="M195 0l10 307v932l-10 297h188l-10 -297v-932l4 -147h692l-25 -160h-849z" />
<glyph unicode="M" horiz-adv-x="1798" d="M195 0l10 307v932l-10 297h333l365 -1438l383 1438h328l-11 -297v-932l11 -307h-189l10 307v1153l-395 -1460h-287l-385 1458v-1151l11 -307h-174z" />
<glyph unicode="N" horiz-adv-x="1396" d="M195 0l10 307v932l-10 297h303l536 -1417v1108l-10 307h178l-10 -307v-932l10 -297h-168v2h-133l-539 1423v-1116l11 -307h-178z" />
<glyph unicode="O" d="M147 774q0 397 145.5 596t422.5 199q276 0 421.5 -199t145.5 -596q0 -401 -146.5 -604t-420.5 -203q-275 0 -421.5 203t-146.5 604zM326 774q0 -340 94 -490.5t295 -150.5q200 0 294.5 150.5t94.5 490.5q0 332 -95.5 480.5t-293.5 148.5q-199 0 -294 -148.5t-95 -480.5z " />
<glyph unicode="P" horiz-adv-x="1290" d="M195 0l10 307v932l-10 297h540q127 0 232.5 -62.5t168 -184.5t62.5 -294q0 -166 -62.5 -289.5t-169 -189t-233.5 -65.5h-360v-144l10 -307h-188zM373 610h305q172 0 257 94.5t85 290.5q0 381 -338 381h-309v-766z" />
<glyph unicode="Q" d="M147 774q0 397 145.5 596t422.5 199q276 0 421.5 -199t145.5 -596q0 -293 -79 -480.5t-230 -266.5l147 -289h-200l-95 237q-47 -8 -110 -8q-274 0 -421 203t-147 604zM326 774q0 -340 94 -490.5t295 -150.5q29 0 43 2l-142 283h203l84 -240q102 59 151.5 203.5 t49.5 392.5q0 332 -95.5 480.5t-293.5 148.5q-199 0 -294 -148.5t-95 -480.5z" />
<glyph unicode="R" horiz-adv-x="1359" d="M195 0l10 307v932l-10 297h540q127 0 232.5 -62.5t168 -184.5t62.5 -294q0 -195 -84 -329t-221 -187l133 -172l262 -307h-256l-217 307l-110 144h-332v-144l20 -307h-198zM373 610h305q172 0 257 94.5t85 290.5q0 381 -338 381h-309v-766z" />
<glyph unicode="S" horiz-adv-x="1294" d="M133 330l29 8q229 -195 477 -195q164 0 254 65.5t90 176.5q0 78 -30.5 126t-113.5 85t-255 80q-233 57 -336 161.5t-103 278.5q0 201 127 320.5t365 119.5q139 0 265 -41.5t206 -115.5l-25 -164l-30 -8q-70 72 -177.5 118t-211.5 46q-170 0 -255 -63.5t-85 -184.5 q0 -84 32.5 -137.5t112.5 -93.5t231 -76q176 -45 275.5 -100.5t142.5 -132.5t43 -191q0 -205 -132 -320t-365 -115q-158 0 -276 41t-230 144z" />
<glyph unicode="T" horiz-adv-x="1175" d="M66 1362l26 174h991l27 -174l-23 -6l-202 26h-213v-1075l10 -307h-188l10 307v1075h-213l-203 -26z" />
<glyph unicode="U" horiz-adv-x="1351" d="M174 1536h193l-11 -297v-762q0 -170 80 -257t240 -87t239.5 87t79.5 257v762l-10 297h193l-11 -297v-762q0 -246 -123.5 -378t-367.5 -132t-368 132t-124 378v762z" />
<glyph unicode="V" horiz-adv-x="1316" d="M82 1536h209l76 -307l290 -1090l304 1090l75 307h199l-102 -307l-269 -922l-84 -307h-254l-84 307l-258 922z" />
<glyph unicode="W" horiz-adv-x="1896" d="M61 1536h189l47 -307l213 -1084l373 1391h139l367 -1425l227 1118l47 307h172l-70 -307l-188 -930l-49 -299h-293l-303 1208l-305 -1208h-258l-52 307l-186 922z" />
<glyph unicode="X" horiz-adv-x="1306" d="M37 0l209 307l299 475l-283 457l-196 297h219l164 -297l202 -328l197 328l166 297h203l-199 -297l-268 -451l303 -481l217 -307h-228l-184 307l-219 352l-217 -352l-170 -307h-215z" />
<glyph unicode="Y" horiz-adv-x="1253" d="M82 1536h211l106 -297l226 -577l229 577l107 297h210l-139 -297l-321 -758v-172l10 -307h-189l11 307v166l-322 764z" />
<glyph unicode="Z" horiz-adv-x="1306" d="M133 0v119l819 1257h-587l-185 -24l-22 6l28 178h961l-31 -207l-770 -1169h828l-27 -160h-1014z" />
<glyph unicode="[" horiz-adv-x="671" d="M174 -276v1812h393l33 -131l-14 -23h-248v-1505h248l14 -22l-33 -131h-393z" />
<glyph unicode="\" horiz-adv-x="870" d="M119 1638h186l55 -297l269 -1198l78 -307h-187l-57 307l-268 1198z" />
<glyph unicode="]" horiz-adv-x="671" d="M72 -145l14 22h248v1505h-248l-14 23l32 131h394v-1812h-394z" />
<glyph unicode="^" horiz-adv-x="1095" d="M78 1010q16 4 67 82l291 444h223l291 -444q52 -78 68 -82l-12 -33h-185l-272 453l-275 -453h-184z" />
<glyph unicode="_" horiz-adv-x="1392" d="M82 -90h1229v-154h-1229v154z" />
<glyph unicode="`" horiz-adv-x="663" d="M123 1667h221l197 -315h-162z" />
<glyph unicode="a" horiz-adv-x="1245" d="M131 342q0 123 54.5 218t149.5 147.5t216 52.5q92 0 192.5 -20.5t153.5 -53.5v127q0 150 -69.5 217.5t-221.5 67.5q-125 0 -228.5 -49.5t-160.5 -137.5l-22 4l24 195q70 72 176.5 109.5t237.5 37.5q205 0 316.5 -103t111.5 -300v-549l10 -305h-168l-6 129 q-33 -61 -143.5 -111.5t-218.5 -50.5q-193 0 -298.5 99.5t-105.5 275.5zM303 360q0 -90 22.5 -140t78 -72.5t153.5 -22.5q78 0 191.5 38t148.5 77v278q-47 35 -146.5 57.5t-197.5 22.5q-131 0 -190.5 -59.5t-59.5 -178.5z" />
<glyph unicode="b" horiz-adv-x="1259" d="M184 0l11 305v1036l-11 297h185l-11 -297v-172q113 84 291 84q240 0 353.5 -152.5t113.5 -484.5q0 -313 -122 -472.5t-349 -159.5q-90 0 -167 42t-120 113l-8 -139h-166zM358 244q43 -53 108.5 -79t166.5 -26q162 0 236.5 113t74.5 364q0 184 -31.5 288t-102.5 148 t-196 44q-162 0 -256 -47v-805z" />
<glyph unicode="c" horiz-adv-x="1130" d="M143 604q0 313 126 481t368 168q123 0 199.5 -21.5t150.5 -74.5l-29 -145l-30 -15q-53 51 -116.5 74t-154.5 23q-178 0 -260 -118t-82 -372q0 -250 82 -363.5t262 -113.5q102 0 167 23.5t147 89.5l35 -17l-37 -145q-82 -61 -157 -86t-187 -25q-242 0 -363 160t-121 477z " />
<glyph unicode="d" horiz-adv-x="1259" d="M143 616q0 332 114 484.5t353 152.5q178 0 291 -84v172l-10 297h184l-10 -297v-1036l10 -305h-166l-8 139q-43 -72 -119.5 -113.5t-167.5 -41.5q-227 0 -349 159.5t-122 472.5zM315 616q0 -252 75 -364.5t237 -112.5q100 0 165.5 25.5t108.5 79.5v805q-90 47 -256 47 q-125 0 -195.5 -44t-102.5 -147.5t-32 -288.5z" />
<glyph unicode="e" horiz-adv-x="1253" d="M143 616q0 645 498 646q238 0 353.5 -127t135.5 -418l-51 -189h-760q4 -209 80 -305t271 -96q229 0 391 113l35 -17l-37 -145q-74 -53 -169 -78t-249 -25q-272 0 -385 160t-113 481zM317 678h639q-2 158 -31.5 249t-95 133t-180.5 42q-123 0 -194.5 -42t-103.5 -133 t-34 -249z" />
<glyph unicode="f" horiz-adv-x="907" d="M154 1079v101l131 49q0 242 68.5 342t228.5 100q72 0 150.5 -22.5t103.5 -46.5l-21 -129l-35 -21q-18 23 -71.5 41t-100.5 18q-88 0 -123.5 -42t-35.5 -140v-100h372v-150h-372v-772l10 -307h-185l11 307v772h-131z" />
<glyph unicode="g" horiz-adv-x="1259" d="M143 616q0 332 114 484.5t353 152.5q190 0 305 -96l13 72h147l-10 -305v-729q0 -623 -655 -623l-74 127l14 16q170 0 295 51.5t190.5 141.5t65.5 209v24q-43 -74 -119.5 -115.5t-167.5 -41.5q-227 0 -349 159.5t-122 472.5zM315 616q0 -252 75 -364.5t237 -112.5 q100 0 165.5 25.5t108.5 79.5v805q-90 47 -256 47q-125 0 -195.5 -44t-102.5 -147.5t-32 -288.5z" />
<glyph unicode="h" horiz-adv-x="1249" d="M184 0l11 307v1034l-11 297h185l-11 -297v-282q55 82 165 133t229 51q147 0 230 -91t83 -255v-590l10 -307h-184l10 307v547q0 125 -50 182.5t-161 57.5q-86 0 -187.5 -51.5t-144.5 -118.5v-617l11 -307h-185z" />
<glyph unicode="i" horiz-adv-x="552" d="M160 1548q0 41 33.5 70t82.5 29t83 -29t34 -70t-33.5 -68.5t-83.5 -27.5q-49 0 -82.5 27.5t-33.5 68.5zM184 0l11 307v625l-11 297h185l-11 -297v-625l11 -307h-185z" />
<glyph unicode="j" horiz-adv-x="567" d="M-72 -313l17 20q33 0 85 51.5t102 131t77 161.5v881l-10 297h184l-10 -297v-932q-119 -299 -307 -442zM174 1548q0 41 34 70t83 29t83 -29t34 -70t-34 -68.5t-83 -27.5t-83 27.5t-34 68.5z" />
<glyph unicode="k" horiz-adv-x="1191" d="M184 0l11 307v1034l-11 297h185l-11 -297v-677l228 268l235 297h244l-279 -297l-155 -180l307 -455l217 -297h-233l-177 297l-217 338l-170 -195v-133l11 -307h-185z" />
<glyph unicode="l" horiz-adv-x="552" d="M184 0l11 307v1034l-11 297h185l-11 -297v-1034l11 -307h-185z" />
<glyph unicode="m" horiz-adv-x="1853" d="M184 0l11 307v625l-11 297h133l29 -123q63 63 159.5 100t194.5 37t170 -42t109 -122q57 74 161.5 119t215.5 45q147 0 230 -91t83 -255v-590l10 -307h-184l10 307v547q0 125 -50 182.5t-161 57.5q-68 0 -148.5 -34t-137.5 -83q6 -39 6 -80v-590l10 -307h-184l10 307v547 q0 125 -50 182.5t-161 57.5q-66 0 -144.5 -32t-136.5 -81v-674l11 -307h-185z" />
<glyph unicode="n" horiz-adv-x="1249" d="M184 0l11 307v625l-11 297h133l41 -170q55 82 165 133t229 51q147 0 230 -91t83 -255v-590l10 -307h-184l10 307v547q0 125 -50 182.5t-161 57.5q-86 0 -187.5 -51.5t-144.5 -118.5v-617l11 -307h-185z" />
<glyph unicode="o" horiz-adv-x="1294" d="M143 616q0 330 123 488t381 158t381 -158t123 -488t-123 -489.5t-381 -159.5t-381 160t-123 489zM315 614q0 -186 31 -290.5t102.5 -150.5t198.5 -46t199 46t102.5 150.5t30.5 290.5t-30.5 291t-102.5 151t-199 46t-198.5 -46t-102.5 -150.5t-31 -291.5z" />
<glyph unicode="p" horiz-adv-x="1259" d="M184 -410l11 308v1026l-11 305h148l10 -72q119 96 307 96q240 0 353.5 -152.5t113.5 -484.5q0 -313 -122 -472.5t-349 -159.5q-90 0 -167 42t-120 115v-243l11 -308h-185zM358 244q43 -53 108.5 -79t166.5 -26q162 0 236.5 113t74.5 364q0 184 -31.5 288t-102.5 148 t-196 44q-166 0 -256 -47v-805z" />
<glyph unicode="q" horiz-adv-x="1259" d="M143 616q0 332 114 484.5t353 152.5q188 0 308 -96l10 72h147l-10 -305v-1026l10 -308h-184l10 308v243q-43 -74 -119.5 -115.5t-167.5 -41.5q-227 0 -349 159.5t-122 472.5zM315 616q0 -252 75 -364.5t237 -112.5q100 0 165.5 25.5t108.5 79.5v805q-90 47 -256 47 q-125 0 -195.5 -44t-102.5 -147.5t-32 -288.5z" />
<glyph unicode="r" horiz-adv-x="952" d="M184 0l11 307v625l-11 297h133l37 -144q51 76 128 117t167 41q72 0 130.5 -8t80.5 -21l-26 -143l-27 -18q-20 14 -80.5 28.5t-116.5 14.5q-164 0 -252 -131v-658l11 -307h-185z" />
<glyph unicode="s" horiz-adv-x="1148" d="M139 297l29 8q111 -88 211 -127t203 -39q129 0 193.5 39t64.5 111q0 55 -26 91t-97.5 74t-218.5 93q-137 51 -210 100t-101.5 107.5t-28.5 146.5q0 168 109.5 261t314.5 93q123 0 218 -28.5t175 -89.5l-29 -160l-31 -8q-51 55 -144 91t-191 36q-123 0 -187.5 -43 t-64.5 -125q0 -57 26.5 -95t96 -74t213.5 -85q133 -45 207.5 -94.5t106.5 -113t32 -155.5q0 -160 -107.5 -245.5t-322.5 -85.5q-129 0 -227.5 36.5t-190.5 122.5z" />
<glyph unicode="t" horiz-adv-x="921" d="M147 1079v101l132 49l61 256h102v-256h365v-150h-365v-743q0 -109 37 -156t117 -47q70 0 138.5 31t99.5 78l22 -11l-35 -137q-43 -55 -112.5 -87t-139.5 -32q-147 0 -218.5 90.5t-71.5 288.5v725h-132z" />
<glyph unicode="u" horiz-adv-x="1249" d="M174 1229h184l-10 -307v-547q0 -131 51.5 -190.5t159.5 -59.5q82 0 184.5 55.5t147.5 124.5v617l-10 307h184l-10 -307v-625l10 -297h-166l-10 168q-57 -84 -167 -138.5t-224 -54.5q-145 0 -229.5 93.5t-84.5 263.5v590z" />
<glyph unicode="v" horiz-adv-x="1183" d="M72 1229h215l75 -297l228 -760l233 760l76 297h213l-111 -297l-317 -932h-195l-305 932z" />
<glyph unicode="w" horiz-adv-x="1695" d="M72 1229h192l219 -1141l195 844l57 297h228l55 -297l194 -854l220 1151h192l-76 -297l-211 -932h-256l-227 1081l-225 -1081h-269l-210 932z" />
<glyph unicode="x" horiz-adv-x="1212" d="M82 0l217 307l201 309l-197 316l-205 297h219l168 -297l119 -203l119 203l168 297h219l-201 -297l-198 -316l202 -309l217 -307h-217l-184 307l-125 195l-125 -195l-178 -307h-219z" />
<glyph unicode="y" horiz-adv-x="1183" d="M72 1229h215l75 -297l228 -760l233 760l76 297h213l-111 -297l-317 -932q-117 -295 -332 -442l-135 123l8 34q72 18 163 104.5t136 180.5h-35l-305 932z" />
<glyph unicode="z" horiz-adv-x="1144" d="M113 0v92l669 987h-643l-14 25l31 125h850v-88l-660 -991h672l14 -25l-31 -125h-888z" />
<glyph unicode="{" horiz-adv-x="856" d="M184 541v176h27q66 0 102.5 40t36.5 107q0 47 -6 86t-25 94q-18 57 -26 105.5t-8 107.5q0 137 84 208t237 71h64l32 -131l-14 -23h-86q-162 0 -162 -174q0 -92 41 -207q23 -63 32 -108t9 -100q0 -53 -23.5 -97.5t-66.5 -66.5q43 -23 66.5 -67t23.5 -97q0 -55 -9 -100.5 t-32 -108.5q-41 -115 -41 -207q0 -174 162 -174h86l14 -22l-32 -132h-64q-154 0 -237.5 71t-83.5 208q0 61 8 109.5t26 103.5t24.5 94t6.5 86q0 68 -37 108t-102 40h-27z" />
<glyph unicode="|" horiz-adv-x="536" d="M184 -410l11 308v1443l-11 297h168l-10 -297v-1443l10 -308h-168z" />
<glyph unicode="}" horiz-adv-x="856" d="M154 -147l14 22h86q162 0 162 174q0 92 -41 207q-23 63 -32 108.5t-9 100.5q0 53 23.5 97t66.5 67q-43 23 -66.5 66.5t-23.5 97.5q0 55 9 100t32 108q41 115 41 207q0 174 -162 174h-86l-14 23l32 131h64q154 0 237.5 -70.5t83.5 -208.5q0 -59 -8 -107t-26 -106 q-18 -55 -24.5 -94t-6.5 -86q0 -68 37 -107.5t102 -39.5h27v-176h-27q-66 0 -102.5 -40t-36.5 -108q0 -47 6 -86t25 -94q18 -55 26 -103.5t8 -109.5q0 -137 -84 -208t-237 -71h-64z" />
<glyph unicode="~" horiz-adv-x="1105" d="M92 592q74 86 145.5 122t170.5 36q45 0 81.5 -12.5t88.5 -37.5q55 -25 89.5 -36t77.5 -11q98 0 203 90h23l43 -79q-74 -86 -145.5 -122t-170.5 -36q-45 0 -81.5 12t-88.5 37q-55 25 -90 36t-78 11q-98 0 -202 -90h-23z" />
<glyph unicode="&#xa1;" horiz-adv-x="745" d="M215 1106q0 55 45 92t113 37q67 0 112 -37t45 -92t-45 -94t-112 -39q-68 0 -113 39t-45 94zM262 -305l19 307l26 799h131l27 -799l18 -307h-221z" />
<glyph unicode="&#xa2;" horiz-adv-x="1099" d="M123 729q0 289 105.5 454t312.5 191l-11 297h152l-10 -295q96 -2 162.5 -24.5t132.5 -69.5l-29 -145l-31 -15q-53 51 -116.5 74t-153.5 23q-178 0 -260 -118t-82 -372q0 -250 82 -363.5t262 -113.5q102 0 166.5 23.5t146.5 89.5l35 -17l-37 -145q-70 -53 -132 -78 t-146 -31l10 -284h-152l11 286q-209 20 -313.5 179t-104.5 454z" />
<glyph unicode="&#xa3;" horiz-adv-x="1241" d="M133 0v66l43 61q74 104 116 220t42 212q0 63 -6 115h-123v160h92l-16 51q-25 82 -35 144.5t-10 135.5q0 180 108.5 292t304.5 112q309 0 412 -289l-148 -49l-26 16q-43 90 -93.5 123t-144.5 33q-113 0 -174 -65.5t-61 -184.5q0 -109 45 -260l16 -59h496v-160h-465 q4 -70 4 -115q0 -90 -39 -212t-92 -193h534q57 0 125 29.5t113 72.5l18 -8l-36 -142q-14 -57 -76 -81.5t-195 -24.5h-729z" />
<glyph unicode="&#xa4;" horiz-adv-x="1449" d="M72 240l223 192l45 45q-84 121 -84 285t84 285l-37 36l-227 197l131 131l196 -227l35 -35q121 88 287 88t287 -88l43 43l192 223l131 -131l-223 -192l-45 -45q84 -121 84 -285q0 -166 -80 -287l33 -35l227 -196l-131 -131l-196 227l-33 31q-117 -84 -289 -84 q-166 0 -287 88l-43 -43l-192 -223zM428 762q0 -315 297 -316q297 1 297 316t-297 315t-297 -315z" />
<glyph unicode="&#xa5;" horiz-adv-x="1212" d="M61 1569h211l107 -297l209 -535h33l213 535l106 297h211l-139 -297l-228 -535h285v-159h-379v-146h379v-160h-379v-65l10 -307h-188l10 307v65h-383v160h383v146h-383v159h287l-225 535z" />
<glyph unicode="&#xa6;" horiz-adv-x="516" d="M174 -410l10 308v512h148v-512l10 -308h-168zM174 1638h168l-10 -297v-512h-148v512z" />
<glyph unicode="&#xa7;" horiz-adv-x="1183" d="M127 688q0 92 47 163t129 103q-78 51 -108.5 110.5t-30.5 149.5q0 168 109.5 261.5t314.5 93.5q123 0 218 -29t175 -90l-29 -160l-30 -8q-51 55 -144.5 91t-191.5 36q-123 0 -187.5 -43t-64.5 -125q0 -57 26.5 -95t97 -75t212.5 -84q217 -74 302 -155.5t85 -206.5 q0 -94 -47 -161t-131 -95q76 -49 108.5 -114t32.5 -157q0 -160 -107.5 -245.5t-322.5 -85.5q-129 0 -227.5 36.5t-190.5 122.5l-22 158l28 8q111 -88 211 -127t203 -39q129 0 193.5 39t64.5 111q0 55 -25.5 91t-96.5 72.5t-220 94.5q-150 57 -230.5 106t-115.5 107.5 t-35 140.5zM297 715q0 -53 31.5 -90t111.5 -75t242 -91q96 12 150.5 50t54.5 93q0 47 -31 82t-117 78t-264 108q-84 -16 -131 -58t-47 -97z" />
<glyph unicode="&#xa8;" horiz-adv-x="864" d="M123 1511q0 43 33 71t82 28q47 0 80.5 -28t33.5 -71q0 -45 -33.5 -71.5t-80.5 -26.5q-49 0 -82 26.5t-33 71.5zM510 1511q0 43 34 71t81 28q49 0 83 -28t34 -71q0 -45 -34 -71.5t-83 -26.5q-47 0 -81 26.5t-34 71.5z" />
<glyph unicode="&#xa9;" horiz-adv-x="1736" d="M78 768q0 219 105.5 402.5t286.5 291t398 107.5t398.5 -107.5t287 -291t105.5 -402.5q0 -217 -105.5 -400.5t-287 -292t-398.5 -108.5t-398 108.5t-286.5 292t-105.5 400.5zM246 768q0 -172 83 -317.5t226 -231.5t313 -86t313.5 86t226.5 231.5t83 317.5q0 174 -83 319.5 t-225.5 230.5t-314.5 85t-314 -85t-225 -230.5t-83 -319.5zM532 762q0 209 86.5 324.5t258.5 115.5q94 0 145 -15.5t102 -51.5l-24 -131l-23 -11q-39 29 -77.5 43.5t-102.5 14.5q-106 0 -156.5 -70t-50.5 -219q0 -152 53.5 -215.5t176.5 -63.5q57 0 102 14.5t92 47.5l12 -8 l-34 -136q-66 -47 -104 -59t-111 -12q-179 0 -262 109.5t-83 322.5z" />
<glyph unicode="&#xaa;" horiz-adv-x="1001" d="M143 1104q0 158 88 244t250 86q45 0 102.5 -13.5t100.5 -31.5v100q0 88 -44 131t-136 43q-80 0 -149.5 -25.5t-141.5 -81.5l-23 5l21 151q68 57 146.5 84t183.5 27q139 0 223 -82t84 -211v-381l10 -305h-168l-4 82q-43 -43 -117.5 -72t-144.5 -29q-129 0 -205 77t-76 202 zM315 1122q1 -139 134 -139q57 0 126.5 23.5t108.5 54.5v164q-39 20 -94 33.5t-107 13.5q-92 0 -130 -34t-38 -116zM711 1090q4 8 4 14z" />
<glyph unicode="&#xab;" horiz-adv-x="1390" d="M123 604l420 559h211l12 -33q-8 -2 -37 -26.5t-51 -54.5l-348 -445l348 -444q22 -31 51 -55.5t37 -26.5l-12 -33h-211zM573 604l420 559h211l13 -33q-8 -2 -37 -26.5t-52 -54.5l-348 -445l348 -444q23 -31 51.5 -55.5t37.5 -26.5l-13 -33h-211z" />
<glyph unicode="&#xac;" horiz-adv-x="1239" d="M102 680v154h983v-680h-163v526h-820z" />
<glyph unicode="&#xad;" horiz-adv-x="958" d="M123 553v154h713v-154h-713z" />
<glyph unicode="&#xae;" horiz-adv-x="956" d="M92 1501q0 113 50.5 202t138.5 139t198 50q111 0 199 -50t137 -139t49 -202q0 -111 -49 -201t-137 -140t-199 -50t-198.5 50t-138 140.5t-50.5 200.5zM184 1501q0 -129 83 -214t212 -85q127 0 211 86t84 213q0 129 -84 214t-211 85q-129 0 -212 -85t-83 -214zM332 1294 l2 84v248l-2 82h151q145 0 146 -147q0 -90 -72 -127l37 -56l59 -84h-98l-47 84l-25 37h-2h-71v-37l2 -84h-80zM410 1487h63q41 0 58.5 16.5t17.5 57.5q0 43 -16.5 59t-57.5 16h-65v-149z" />
<glyph unicode="&#xaf;" horiz-adv-x="849" d="M123 1397v137h604v-137h-604z" />
<glyph unicode="&#xb0;" horiz-adv-x="827" d="M102 1538q0 133 88.5 214t223.5 81q137 0 224 -81t87 -214q0 -131 -88 -211t-223 -80t-223.5 80t-88.5 211zM258 1538q0 -74 43 -115t113 -41q71 0 113 40t42 116t-43 117t-112 41q-70 0 -113 -41t-43 -117z" />
<glyph unicode="&#xb1;" horiz-adv-x="1312" d="M164 143v154h983v-154h-983zM164 700v154h409v307h164v-307h410v-154h-410v-307h-164v307h-409z" />
<glyph unicode="&#xb2;" horiz-adv-x="921" d="M154 844v104l247 273q109 119 153 194.5t44 130.5q0 57 -41 91t-106 34q-78 0 -143.5 -32.5t-129.5 -106.5l-22 4l24 172q143 115 309 115q125 0 200 -70t75 -188q0 -109 -46 -197t-173 -223l-144 -152h174q59 0 125 23.5t111 58.5l18 -8l-36 -137q-10 -39 -79 -62.5 t-188 -23.5h-372z" />
<glyph unicode="&#xb3;" horiz-adv-x="919" d="M133 1079l23 4q63 -51 125.5 -72.5t146.5 -21.5q207 0 207 146q0 86 -63.5 120.5t-217.5 34.5h-43v99l203 278h-348l-14 23l61 127h549v-66l-232 -332q142 -33 209.5 -99.5t67.5 -176.5q0 -143 -93 -227.5t-253 -84.5q-121 0 -187.5 17.5t-121.5 62.5z" />
<glyph unicode="&#xb4;" horiz-adv-x="663" d="M123 1352l197 315h221l-256 -315h-162z" />
<glyph unicode="&#xb5;" horiz-adv-x="1275" d="M184 -410l11 308v1024l-11 307h185l-11 -307v-547q0 -131 51.5 -190.5t159.5 -59.5q82 0 184.5 55.5t147.5 124.5v617l-10 307h184l-10 -307v-633q0 -115 90 -133l29 -6l-25 -150h-84q-66 0 -111.5 54.5t-52.5 123.5q-68 -94 -175 -148.5t-228 -54.5q-98 0 -172 45v-122 l10 -308h-162z" />
<glyph unicode="&#xb6;" horiz-adv-x="1202" d="M154 1071q0 225 96 345t274 120h510l-10 -297v-1341l10 -308h-143v1815h-164v-1815h-143l10 308v706h-70q-178 0 -274 121t-96 346z" />
<glyph unicode="&#xb7;" horiz-adv-x="724" d="M252 719q0 55 45 94t112 39q68 0 113 -39t45 -94t-45 -92t-113 -37q-67 0 -112 37t-45 92z" />
<glyph unicode="&#xb8;" horiz-adv-x="661" d="M123 -276l14 8q43 -31 79 -43.5t75 -12.5q41 0 66.5 22.5t25.5 57.5q0 96 -168 97l41 217h141l-39 -131q89 -19 135 -69t46 -128q0 -86 -58.5 -135t-163.5 -49q-47 0 -95 14t-79 37z" />
<glyph unicode="&#xb9;" horiz-adv-x="800" d="M195 1425l18 154l260 238h102v-666l11 -307h-185l11 307v399l-187 -139z" />
<glyph unicode="&#xba;" horiz-adv-x="983" d="M123 1327q0 260 92 378t277 118q184 0 276 -118t92 -378q0 -262 -93 -382t-275 -120q-183 0 -276 120t-93 382zM295 1325q0 -137 19.5 -210t60.5 -101.5t117 -28.5q75 0 116 28.5t60.5 101.5t19.5 210t-19.5 210t-60.5 100.5t-116 27.5q-76 0 -117 -27.5t-60.5 -100.5 t-19.5 -210z" />
<glyph unicode="&#xbb;" horiz-adv-x="1390" d="M174 78q8 2 37 26.5t51 55.5l348 444l-348 445q-23 31 -51.5 55t-36.5 26l12 33h211l420 -559l-420 -559h-211zM625 78q8 2 37 26.5t51 55.5l348 444l-348 445q-23 31 -51.5 55t-36.5 26l12 33h211l420 -559l-420 -559h-211z" />
<glyph unicode="&#xbc;" horiz-adv-x="1992" d="M195 1144l18 154l260 238h102v-666l11 -307h-185l11 307v399l-187 -139zM362 0l226 307l633 932l178 297h213l-228 -297l-632 -932l-195 -307h-195zM1054 155v60l519 758h102v-666h102v-152h-96l4 -155h-184l4 155h-451zM1288 307h223v342z" />
<glyph unicode="&#xbd;" horiz-adv-x="2168" d="M195 1144l18 154l260 238h102v-666l11 -307h-185l11 307v399l-187 -139zM362 0l226 307l633 932l178 297h213l-228 -297l-632 -932l-195 -307h-195zM1278 -2v104l247 273q109 119 153 194.5t44 130.5q0 57 -41 91t-106 34q-78 0 -143.5 -32.5t-129.5 -106.5l-22 4l24 172 q143 115 309 115q125 0 200 -70t75 -188q0 -109 -46 -197t-173 -223l-144 -152h174q59 0 125 23.5t111 58.5l18 -8l-36 -137q-10 -39 -79 -62.5t-188 -23.5h-372z" />
<glyph unicode="&#xbe;" horiz-adv-x="1972" d="M133 798l23 4q63 -51 125.5 -72.5t146.5 -21.5q207 0 207 146q0 86 -63.5 120.5t-217.5 34.5h-43v99l203 278h-348l-14 23l61 127h549v-66l-232 -332q142 -33 209.5 -99.5t67.5 -176.5q0 -143 -93 -227.5t-253 -84.5q-121 0 -187.5 17.5t-121.5 62.5zM444 0l226 307 l633 932l178 297h213l-228 -297l-632 -932l-195 -307h-195zM1136 155v60l519 758h102v-666h102v-152h-96l4 -155h-184l4 155h-451zM1370 307h223v342z" />
<glyph unicode="&#xbf;" horiz-adv-x="923" d="M143 -33q0 133 121 336q86 143 117 243.5t31 252.5h163q0 -168 -37.5 -296t-127.5 -270q-78 -123 -78 -217q0 -72 50 -115.5t132 -43.5q80 0 139.5 26.5t116.5 85.5l21 -10l-35 -178q-119 -100 -299 -100q-86 0 -158 37.5t-114 103t-42 145.5zM324 1104q0 55 45 92 t112 37q68 0 113 -37t45 -92t-45 -94t-113 -39t-112.5 39t-44.5 94z" />
<glyph unicode="&#xc0;" horiz-adv-x="1353" d="M86 0l109 307l297 922l86 307h202l82 -307l297 -922l109 -307h-209l-84 307l-31 105l-555 -4l-31 -101l-79 -307h-193zM389 1974h221l197 -315h-162zM438 567l459 4l-227 764z" />
<glyph unicode="&#xc1;" horiz-adv-x="1353" d="M86 0l109 307l297 922l86 307h202l82 -307l297 -922l109 -307h-209l-84 307l-31 105l-555 -4l-31 -101l-79 -307h-193zM438 567l459 4l-227 764zM553 1659l197 315h221l-256 -315h-162z" />
<glyph unicode="&#xc2;" horiz-adv-x="1353" d="M86 0l109 307l297 922l86 307h202l82 -307l297 -922l109 -307h-209l-84 307l-31 105l-555 -4l-31 -101l-79 -307h-193zM314 1659l251 315h201l252 -315h-205l-147 235l-150 -235h-202zM438 567l459 4l-227 764z" />
<glyph unicode="&#xc3;" horiz-adv-x="1353" d="M86 0l109 307l297 922l86 307h202l82 -307l297 -922l109 -307h-209l-84 307l-31 105l-555 -4l-31 -101l-79 -307h-193zM377 1693q0 84 58.5 131.5t138.5 47.5q37 0 65.5 -7.5t67.5 -21.5q27 -10 55.5 -17.5t58.5 -7.5q70 0 70 43h92q0 -84 -55 -128t-141 -44 q-33 0 -75 12.5t-50 14.5q-80 27 -123 27q-33 0 -51.5 -13.5t-18.5 -36.5h-92zM438 567l459 4l-227 764z" />
<glyph unicode="&#xc4;" horiz-adv-x="1353" d="M86 0l109 307l297 922l86 307h202l82 -307l297 -922l109 -307h-209l-84 307l-31 105l-555 -4l-31 -101l-79 -307h-193zM371 1818q0 43 33 71t82 28q47 0 80.5 -28t33.5 -71q0 -45 -33.5 -71.5t-80.5 -26.5q-49 0 -82 26.5t-33 71.5zM438 567l459 4l-227 764zM758 1818 q0 43 34 71t81 28q49 0 83 -28t34 -71q0 -45 -34 -71.5t-83 -26.5q-47 0 -81 26.5t-34 71.5z" />
<glyph unicode="&#xc5;" horiz-adv-x="1353" d="M86 0l109 307l297 922l86 307h202l82 -307l297 -922l109 -307h-209l-84 307l-31 105l-555 -4l-31 -101l-79 -307h-193zM438 567l459 4l-227 764zM455 1825q0 96 63.5 154.5t161.5 58.5t162 -58.5t64 -154.5q0 -94 -63.5 -151.5t-162.5 -57.5q-98 0 -161.5 57t-63.5 152z M584 1825q0 -45 27.5 -71t68.5 -26q45 0 71 24.5t26 72.5q0 47 -28 72.5t-69 25.5q-43 0 -69.5 -25.5t-26.5 -72.5z" />
<glyph unicode="&#xc6;" horiz-adv-x="1912" d="M20 0l168 307l482 922l145 307h971l-25 -160h-657v-506h588l-25 -159h-563v-551h696l-24 -160h-840v412l-504 -4l-49 -101l-139 -307h-224zM512 567l424 4v846z" />
<glyph unicode="&#xc7;" horiz-adv-x="1259" d="M147 774q0 391 156 593t485 202q125 0 208 -24.5t149 -78.5l-29 -145l-41 -18q-100 100 -287 100q-231 0 -343.5 -150.5t-112.5 -478.5q0 -242 44 -380t142 -199.5t270 -61.5q117 0 191 23.5t143 83.5l35 -17l-37 -145q-154 -111 -332 -111h-16l-8 -28q88 -18 134 -68.5 t46 -128.5q0 -86 -58.5 -135t-162.5 -49q-47 0 -95 14t-79 37l-21 115l15 8q43 -31 78.5 -43.5t74.5 -12.5q41 0 66.5 22.5t25.5 57.5q0 96 -167 97l22 122q-180 25 -288.5 115t-158 257t-49.5 427z" />
<glyph unicode="&#xc8;" horiz-adv-x="1181" d="M195 0l10 307v932l-10 297h860l-25 -160h-657v-506h588l-25 -159h-563v-551h696l-25 -160h-849zM321 1974h221l197 -315h-162z" />
<glyph unicode="&#xc9;" horiz-adv-x="1181" d="M195 0l10 307v932l-10 297h860l-25 -160h-657v-506h588l-25 -159h-563v-551h696l-25 -160h-849zM485 1659l197 315h221l-256 -315h-162z" />
<glyph unicode="&#xca;" horiz-adv-x="1181" d="M195 0l10 307v932l-10 297h860l-25 -160h-657v-506h588l-25 -159h-563v-551h696l-25 -160h-849zM246 1659l251 315h201l252 -315h-205l-147 235l-150 -235h-202z" />
<glyph unicode="&#xcb;" horiz-adv-x="1181" d="M195 0l10 307v932l-10 297h860l-25 -160h-657v-506h588l-25 -159h-563v-551h696l-25 -160h-849zM303 1818q0 43 33 71t82 28q47 0 80.5 -28t33.5 -71q0 -45 -33.5 -71.5t-80.5 -26.5q-49 0 -82 26.5t-33 71.5zM690 1818q0 43 34 71t81 28q49 0 83 -28t34 -71 q0 -45 -34 -71.5t-83 -26.5q-47 0 -81 26.5t-34 71.5z" />
<glyph unicode="&#xcc;" horiz-adv-x="577" d="M-2 1974h221l197 -315h-162zM195 0l10 307v932l-10 297h188l-10 -297v-932l10 -307h-188z" />
<glyph unicode="&#xcd;" horiz-adv-x="577" d="M161 1659l197 315h221l-256 -315h-162zM195 0l10 307v932l-10 297h188l-10 -297v-932l10 -307h-188z" />
<glyph unicode="&#xce;" horiz-adv-x="577" d="M-77 1659l251 315h201l252 -315h-205l-147 235l-150 -235h-202zM195 0l10 307v932l-10 297h188l-10 -297v-932l10 -307h-188z" />
<glyph unicode="&#xcf;" horiz-adv-x="577" d="M-21 1818q0 43 33 71t82 28q47 0 80.5 -28t33.5 -71q0 -45 -33.5 -71.5t-80.5 -26.5q-49 0 -82 26.5t-33 71.5zM195 0l10 307v932l-10 297h188l-10 -297v-932l10 -307h-188zM366 1818q0 43 34 71t81 28q49 0 83 -28t34 -71q0 -45 -34 -71.5t-83 -26.5q-47 0 -81 26.5 t-34 71.5z" />
<glyph unicode="&#xd0;" horiz-adv-x="1359" d="M76 700v136h129v403l-10 297h460q197 0 319 -79t180 -246t58 -437q0 -399 -134 -586.5t-423 -187.5h-460l10 307v393h-129zM377 160h278q199 0 286 145.5t87 468.5q0 221 -38 352t-118.5 190.5t-216.5 59.5h-278v-540h307v-136h-307v-540z" />
<glyph unicode="&#xd1;" horiz-adv-x="1396" d="M195 0l10 307v932l-10 297h303l536 -1417v1108l-10 307h178l-10 -307v-932l10 -297h-168v2h-133l-539 1423v-1116l11 -307h-178zM395 1693q0 84 58.5 131.5t138.5 47.5q37 0 65.5 -7.5t67.5 -21.5q27 -10 55.5 -17.5t58.5 -7.5q70 0 70 43h92q0 -84 -55 -128t-141 -44 q-33 0 -75 12.5t-50 14.5q-80 27 -123 27q-33 0 -51.5 -13.5t-18.5 -36.5h-92z" />
<glyph unicode="&#xd2;" d="M147 774q0 397 145.5 596t422.5 199q276 0 421.5 -199t145.5 -596q0 -401 -146.5 -604t-420.5 -203q-275 0 -421.5 203t-146.5 604zM326 774q0 -340 94 -490.5t295 -150.5q200 0 294.5 150.5t94.5 490.5q0 332 -95.5 480.5t-293.5 148.5q-199 0 -294 -148.5t-95 -480.5z M424 1974h221l197 -315h-162z" />
<glyph unicode="&#xd3;" d="M147 774q0 397 145.5 596t422.5 199q276 0 421.5 -199t145.5 -596q0 -401 -146.5 -604t-420.5 -203q-275 0 -421.5 203t-146.5 604zM326 774q0 -340 94 -490.5t295 -150.5q200 0 294.5 150.5t94.5 490.5q0 332 -95.5 480.5t-293.5 148.5q-199 0 -294 -148.5t-95 -480.5z M587 1659l197 315h221l-256 -315h-162z" />
<glyph unicode="&#xd4;" d="M147 774q0 397 145.5 596t422.5 199q276 0 421.5 -199t145.5 -596q0 -401 -146.5 -604t-420.5 -203q-275 0 -421.5 203t-146.5 604zM326 774q0 -340 94 -490.5t295 -150.5q200 0 294.5 150.5t94.5 490.5q0 332 -95.5 480.5t-293.5 148.5q-199 0 -294 -148.5t-95 -480.5z M349 1659l251 315h201l252 -315h-205l-147 235l-150 -235h-202z" />
<glyph unicode="&#xd5;" d="M147 774q0 397 145.5 596t422.5 199q276 0 421.5 -199t145.5 -596q0 -401 -146.5 -604t-420.5 -203q-275 0 -421.5 203t-146.5 604zM326 774q0 -340 94 -490.5t295 -150.5q200 0 294.5 150.5t94.5 490.5q0 332 -95.5 480.5t-293.5 148.5q-199 0 -294 -148.5t-95 -480.5z M412 1693q0 84 58.5 131.5t138.5 47.5q37 0 65.5 -7.5t67.5 -21.5q27 -10 55.5 -17.5t58.5 -7.5q70 0 70 43h92q0 -84 -55 -128t-141 -44q-33 0 -75 12.5t-50 14.5q-80 27 -123 27q-33 0 -51.5 -13.5t-18.5 -36.5h-92z" />
<glyph unicode="&#xd6;" d="M147 774q0 397 145.5 596t422.5 199q276 0 421.5 -199t145.5 -596q0 -401 -146.5 -604t-420.5 -203q-275 0 -421.5 203t-146.5 604zM326 774q0 -340 94 -490.5t295 -150.5q200 0 294.5 150.5t94.5 490.5q0 332 -95.5 480.5t-293.5 148.5q-199 0 -294 -148.5t-95 -480.5z M405 1818q0 43 33 71t82 28q47 0 80.5 -28t33.5 -71q0 -45 -33.5 -71.5t-80.5 -26.5q-49 0 -82 26.5t-33 71.5zM792 1818q0 43 34 71t81 28q49 0 83 -28t34 -71q0 -45 -34 -71.5t-83 -26.5q-47 0 -81 26.5t-34 71.5z" />
<glyph unicode="&#xd7;" horiz-adv-x="1048" d="M102 281l326 329l-324 330l111 113l309 -355l310 355l112 -113l-325 -330l325 -329l-112 -113l-310 354l-309 -354z" />
<glyph unicode="&#xd8;" d="M147 774q0 397 145.5 596t422.5 199q205 0 338 -109l47 76h164l-113 -186q131 -201 131 -576q0 -401 -146.5 -604t-420.5 -203q-207 0 -338 113l-49 -80h-164l117 190q-133 201 -134 584zM326 774q0 -267 57 -414l580 953q-90 90 -248 90q-199 0 -294 -148.5t-95 -480.5z M465 225q90 -92 250 -92q200 0 294.5 150.5t94.5 490.5q0 260 -57 406z" />
<glyph unicode="&#xd9;" horiz-adv-x="1351" d="M174 1536h193l-11 -297v-762q0 -170 80 -257t240 -87t239.5 87t79.5 257v762l-10 297h193l-11 -297v-762q0 -246 -123.5 -378t-367.5 -132t-368 132t-124 378v762zM385 1974h221l197 -315h-162z" />
<glyph unicode="&#xda;" horiz-adv-x="1351" d="M174 1536h193l-11 -297v-762q0 -170 80 -257t240 -87t239.5 87t79.5 257v762l-10 297h193l-11 -297v-762q0 -246 -123.5 -378t-367.5 -132t-368 132t-124 378v762zM549 1659l197 315h221l-256 -315h-162z" />
<glyph unicode="&#xdb;" horiz-adv-x="1351" d="M174 1536h193l-11 -297v-762q0 -170 80 -257t240 -87t239.5 87t79.5 257v762l-10 297h193l-11 -297v-762q0 -246 -123.5 -378t-367.5 -132t-368 132t-124 378v762zM310 1659l251 315h201l252 -315h-205l-147 235l-150 -235h-202z" />
<glyph unicode="&#xdc;" horiz-adv-x="1351" d="M174 1536h193l-11 -297v-762q0 -170 80 -257t240 -87t239.5 87t79.5 257v762l-10 297h193l-11 -297v-762q0 -246 -123.5 -378t-367.5 -132t-368 132t-124 378v762zM366 1818q0 43 33 71t82 28q47 0 80.5 -28t33.5 -71q0 -45 -33.5 -71.5t-80.5 -26.5q-49 0 -82 26.5 t-33 71.5zM753 1818q0 43 34 71t81 28q49 0 83 -28t34 -71q0 -45 -34 -71.5t-83 -26.5q-47 0 -81 26.5t-34 71.5z" />
<glyph unicode="&#xdd;" horiz-adv-x="1253" d="M82 1536h211l106 -297l226 -577l229 577l107 297h210l-139 -297l-321 -758v-172l10 -307h-189l11 307v166l-322 764zM491 1659l197 315h221l-256 -315h-162z" />
<glyph unicode="&#xde;" horiz-adv-x="1280" d="M195 0l10 307v932l-10 297h188l-10 -297v-10h375q131 0 233 -57.5t159.5 -162t57.5 -239.5q0 -131 -57.5 -236.5t-160.5 -166t-235 -60.5h-372l10 -307h-188zM373 467h317q170 0 250 72.5t80 230.5q0 154 -80 226.5t-246 72.5h-321v-602z" />
<glyph unicode="&#xdf;" horiz-adv-x="1284" d="M154 0l10 307v867q0 246 117.5 371.5t347.5 125.5q109 0 194.5 -44t135 -125t49.5 -187q0 -80 -27 -139.5t-92 -124.5q-78 -78 -98.5 -109t-20.5 -65q0 -47 34 -81t142 -87q121 -59 188.5 -152.5t67.5 -212.5q0 -365 -373 -364q-104 0 -202.5 32.5t-139.5 83.5l-26 172 l28 8q53 -55 146.5 -95t165.5 -40q121 0 175 44t54 139q0 80 -49 135t-162 110q-123 61 -172 126t-49 165q0 80 25.5 132t99.5 122q57 53 85 100.5t28 100.5q0 90 -59.5 143t-166.5 53q-139 0 -210.5 -89t-71.5 -265v-850l10 -307h-184z" />
<glyph unicode="&#xe0;" horiz-adv-x="1245" d="M131 342q0 123 54.5 218t149.5 147.5t216 52.5q92 0 192.5 -20.5t153.5 -53.5v127q0 150 -69.5 217.5t-221.5 67.5q-125 0 -228.5 -49.5t-160.5 -137.5l-22 4l24 195q70 72 176.5 109.5t237.5 37.5q205 0 316.5 -103t111.5 -300v-549l10 -305h-168l-6 129 q-33 -61 -143.5 -111.5t-218.5 -50.5q-193 0 -298.5 99.5t-105.5 275.5zM303 360q0 -90 22.5 -140t78 -72.5t153.5 -22.5q78 0 191.5 38t148.5 77v278q-47 35 -146.5 57.5t-197.5 22.5q-131 0 -190.5 -59.5t-59.5 -178.5zM330 1667h221l197 -315h-162z" />
<glyph unicode="&#xe1;" horiz-adv-x="1245" d="M131 342q0 123 54.5 218t149.5 147.5t216 52.5q92 0 192.5 -20.5t153.5 -53.5v127q0 150 -69.5 217.5t-221.5 67.5q-125 0 -228.5 -49.5t-160.5 -137.5l-22 4l24 195q70 72 176.5 109.5t237.5 37.5q205 0 316.5 -103t111.5 -300v-549l10 -305h-168l-6 129 q-33 -61 -143.5 -111.5t-218.5 -50.5q-193 0 -298.5 99.5t-105.5 275.5zM303 360q0 -90 22.5 -140t78 -72.5t153.5 -22.5q78 0 191.5 38t148.5 77v278q-47 35 -146.5 57.5t-197.5 22.5q-131 0 -190.5 -59.5t-59.5 -178.5zM493 1352l197 315h221l-256 -315h-162z" />
<glyph unicode="&#xe2;" horiz-adv-x="1245" d="M131 342q0 123 54.5 218t149.5 147.5t216 52.5q92 0 192.5 -20.5t153.5 -53.5v127q0 150 -69.5 217.5t-221.5 67.5q-125 0 -228.5 -49.5t-160.5 -137.5l-22 4l24 195q70 72 176.5 109.5t237.5 37.5q205 0 316.5 -103t111.5 -300v-549l10 -305h-168l-6 129 q-33 -61 -143.5 -111.5t-218.5 -50.5q-193 0 -298.5 99.5t-105.5 275.5zM254 1352l251 315h201l252 -315h-205l-147 235l-150 -235h-202zM303 360q0 -90 22.5 -140t78 -72.5t153.5 -22.5q78 0 191.5 38t148.5 77v278q-47 35 -146.5 57.5t-197.5 22.5q-131 0 -190.5 -59.5 t-59.5 -178.5z" />
<glyph unicode="&#xe3;" horiz-adv-x="1245" d="M131 342q0 123 54.5 218t149.5 147.5t216 52.5q92 0 192.5 -20.5t153.5 -53.5v127q0 150 -69.5 217.5t-221.5 67.5q-125 0 -228.5 -49.5t-160.5 -137.5l-22 4l24 195q70 72 176.5 109.5t237.5 37.5q205 0 316.5 -103t111.5 -300v-549l10 -305h-168l-6 129 q-33 -61 -143.5 -111.5t-218.5 -50.5q-193 0 -298.5 99.5t-105.5 275.5zM303 360q0 -90 22.5 -140t78 -72.5t153.5 -22.5q78 0 191.5 38t148.5 77v278q-47 35 -146.5 57.5t-197.5 22.5q-131 0 -190.5 -59.5t-59.5 -178.5zM318 1386q0 84 58.5 131.5t138.5 47.5 q37 0 65.5 -7.5t67.5 -21.5q27 -10 55.5 -17.5t58.5 -7.5q70 0 70 43h92q0 -84 -55 -128t-141 -44q-33 0 -75 12.5t-50 14.5q-80 27 -123 27q-33 0 -51.5 -13.5t-18.5 -36.5h-92z" />
<glyph unicode="&#xe4;" horiz-adv-x="1245" d="M131 342q0 123 54.5 218t149.5 147.5t216 52.5q92 0 192.5 -20.5t153.5 -53.5v127q0 150 -69.5 217.5t-221.5 67.5q-125 0 -228.5 -49.5t-160.5 -137.5l-22 4l24 195q70 72 176.5 109.5t237.5 37.5q205 0 316.5 -103t111.5 -300v-549l10 -305h-168l-6 129 q-33 -61 -143.5 -111.5t-218.5 -50.5q-193 0 -298.5 99.5t-105.5 275.5zM303 360q0 -90 22.5 -140t78 -72.5t153.5 -22.5q78 0 191.5 38t148.5 77v278q-47 35 -146.5 57.5t-197.5 22.5q-131 0 -190.5 -59.5t-59.5 -178.5zM311 1511q0 43 33 71t82 28q47 0 80.5 -28t33.5 -71 q0 -45 -33.5 -71.5t-80.5 -26.5q-49 0 -82 26.5t-33 71.5zM698 1511q0 43 34 71t81 28q49 0 83 -28t34 -71q0 -45 -34 -71.5t-83 -26.5q-47 0 -81 26.5t-34 71.5z" />
<glyph unicode="&#xe5;" horiz-adv-x="1245" d="M131 342q0 123 54.5 218t149.5 147.5t216 52.5q92 0 192.5 -20.5t153.5 -53.5v127q0 150 -69.5 217.5t-221.5 67.5q-125 0 -228.5 -49.5t-160.5 -137.5l-22 4l24 195q70 72 176.5 109.5t237.5 37.5q205 0 316.5 -103t111.5 -300v-549l10 -305h-168l-6 129 q-33 -61 -143.5 -111.5t-218.5 -50.5q-193 0 -298.5 99.5t-105.5 275.5zM303 360q0 -90 22.5 -140t78 -72.5t153.5 -22.5q78 0 191.5 38t148.5 77v278q-47 35 -146.5 57.5t-197.5 22.5q-131 0 -190.5 -59.5t-59.5 -178.5zM395 1518q0 96 63.5 154.5t161.5 58.5t162 -58.5 t64 -154.5q0 -94 -63.5 -151.5t-162.5 -57.5q-98 0 -161.5 57t-63.5 152zM524 1518q0 -45 27.5 -71t68.5 -26q45 0 71 24.5t26 72.5q0 47 -28 72.5t-69 25.5q-43 0 -69.5 -25.5t-26.5 -72.5z" />
<glyph unicode="&#xe6;" horiz-adv-x="1984" d="M72 324q0 176 121.5 267t365.5 89l315 -2v135q0 147 -75.5 216t-231.5 69q-123 0 -219 -48.5t-153 -138.5l-23 4l25 195q143 147 397 147q133 0 230.5 -50t148.5 -144q121 199 399 199q238 0 353.5 -127t136.5 -418l-52 -189h-759q4 -209 79.5 -305t270.5 -96 q229 0 391 113l35 -17l-37 -145q-74 -53 -169 -78t-249 -25q-160 0 -262 55.5t-160 164.5q-31 -59 -104.5 -111.5t-172 -84.5t-198.5 -32q-199 0 -301 94.5t-102 262.5zM244 324q0 -96 64.5 -147.5t189.5 -51.5q139 0 250.5 65.5t148.5 167.5q-18 88 -20 170h-316 q-176 0 -246.5 -46t-70.5 -158zM1049 678h639q-2 158 -32 249t-95.5 133t-180.5 42q-123 0 -194.5 -42t-103 -133t-33.5 -249z" />
<glyph unicode="&#xe7;" horiz-adv-x="1130" d="M143 604q0 313 126 481t368 168q123 0 199.5 -21.5t150.5 -74.5l-29 -145l-30 -15q-53 51 -116.5 74t-154.5 23q-178 0 -260 -118t-82 -372q0 -250 82 -363.5t262 -113.5q102 0 167 23.5t147 89.5l35 -17l-37 -145q-72 -55 -136.5 -80t-152.5 -29l-8 -30 q88 -18 134 -68.5t46 -128.5q0 -86 -58.5 -135t-162.5 -49q-47 0 -95.5 14t-78.5 37l-21 115l15 8q43 -31 78.5 -43.5t74.5 -12.5q41 0 66.5 22.5t25.5 57.5q0 96 -168 97l23 118q-410 47 -410 633z" />
<glyph unicode="&#xe8;" horiz-adv-x="1253" d="M143 616q0 645 498 646q238 0 353.5 -127t135.5 -418l-51 -189h-760q4 -209 80 -305t271 -96q229 0 391 113l35 -17l-37 -145q-74 -53 -169 -78t-249 -25q-272 0 -385 160t-113 481zM317 678h639q-2 158 -31.5 249t-95 133t-180.5 42q-123 0 -194.5 -42t-103.5 -133 t-34 -249zM350 1667h221l197 -315h-162z" />
<glyph unicode="&#xe9;" horiz-adv-x="1253" d="M143 616q0 645 498 646q238 0 353.5 -127t135.5 -418l-51 -189h-760q4 -209 80 -305t271 -96q229 0 391 113l35 -17l-37 -145q-74 -53 -169 -78t-249 -25q-272 0 -385 160t-113 481zM317 678h639q-2 158 -31.5 249t-95 133t-180.5 42q-123 0 -194.5 -42t-103.5 -133 t-34 -249zM514 1352l197 315h221l-256 -315h-162z" />
<glyph unicode="&#xea;" horiz-adv-x="1253" d="M143 616q0 645 498 646q238 0 353.5 -127t135.5 -418l-51 -189h-760q4 -209 80 -305t271 -96q229 0 391 113l35 -17l-37 -145q-74 -53 -169 -78t-249 -25q-272 0 -385 160t-113 481zM275 1352l251 315h201l252 -315h-205l-147 235l-150 -235h-202zM317 678h639 q-2 158 -31.5 249t-95 133t-180.5 42q-123 0 -194.5 -42t-103.5 -133t-34 -249z" />
<glyph unicode="&#xeb;" horiz-adv-x="1253" d="M143 616q0 645 498 646q238 0 353.5 -127t135.5 -418l-51 -189h-760q4 -209 80 -305t271 -96q229 0 391 113l35 -17l-37 -145q-74 -53 -169 -78t-249 -25q-272 0 -385 160t-113 481zM317 678h639q-2 158 -31.5 249t-95 133t-180.5 42q-123 0 -194.5 -42t-103.5 -133 t-34 -249zM332 1511q0 43 33 71t82 28q47 0 80.5 -28t33.5 -71q0 -45 -33.5 -71.5t-80.5 -26.5q-49 0 -82 26.5t-33 71.5zM719 1511q0 43 34 71t81 28q49 0 83 -28t34 -71q0 -45 -34 -71.5t-83 -26.5q-47 0 -81 26.5t-34 71.5z" />
<glyph unicode="&#xec;" horiz-adv-x="552" d="M-14 1667h221l197 -315h-162zM184 0l11 307v625l-11 297h185l-11 -297v-625l11 -307h-185z" />
<glyph unicode="&#xed;" horiz-adv-x="552" d="M149 1352l197 315h221l-256 -315h-162zM184 0l11 307v625l-11 297h185l-11 -297v-625l11 -307h-185z" />
<glyph unicode="&#xee;" horiz-adv-x="552" d="M-90 1352l251 315h201l252 -315h-205l-147 235l-150 -235h-202zM184 0l11 307v625l-11 297h185l-11 -297v-625l11 -307h-185z" />
<glyph unicode="&#xef;" horiz-adv-x="552" d="M-33 1511q0 43 33 71t82 28q47 0 80.5 -28t33.5 -71q0 -45 -33.5 -71.5t-80.5 -26.5q-49 0 -82 26.5t-33 71.5zM184 0l11 307v625l-11 297h185l-11 -297v-625l11 -307h-185zM354 1511q0 43 34 71t81 28q49 0 83 -28t34 -71q0 -45 -34 -71.5t-83 -26.5q-47 0 -81 26.5 t-34 71.5z" />
<glyph unicode="&#xf0;" horiz-adv-x="1265" d="M160 498q0 258 107.5 389t332.5 131q84 0 160 -26.5t129 -71.5q-70 164 -223 303l-451 -176v135l340 129q-111 78 -244 143v29l68 71q184 -84 326 -188l319 121v-125l-213 -84q311 -282 311 -688q0 -309 -125 -466t-354 -157q-150 0 -258.5 66.5t-166.5 186.5t-58 278z M332 498q0 -168 85 -269.5t226 -101.5q160 0 233.5 113.5t73.5 349.5q0 90 -14 168q-39 37 -127 68.5t-166 31.5q-168 0 -239.5 -85t-71.5 -275z" />
<glyph unicode="&#xf1;" horiz-adv-x="1249" d="M184 0l11 307v625l-11 297h133l41 -170q55 82 165 133t229 51q147 0 230 -91t83 -255v-590l10 -307h-184l10 307v547q0 125 -50 182.5t-161 57.5q-86 0 -187.5 -51.5t-144.5 -118.5v-617l11 -307h-185zM324 1386q0 84 58.5 131.5t138.5 47.5q37 0 65.5 -7.5t67.5 -21.5 q27 -10 55.5 -17.5t58.5 -7.5q70 0 70 43h92q0 -84 -55 -128t-141 -44q-33 0 -75 12.5t-50 14.5q-80 27 -123 27q-33 0 -51.5 -13.5t-18.5 -36.5h-92z" />
<glyph unicode="&#xf2;" horiz-adv-x="1294" d="M143 616q0 330 123 488t381 158t381 -158t123 -488t-123 -489.5t-381 -159.5t-381 160t-123 489zM315 614q0 -186 31 -290.5t102.5 -150.5t198.5 -46t199 46t102.5 150.5t30.5 290.5t-30.5 291t-102.5 151t-199 46t-198.5 -46t-102.5 -150.5t-31 -291.5zM356 1667h221 l197 -315h-162z" />
<glyph unicode="&#xf3;" horiz-adv-x="1294" d="M143 616q0 330 123 488t381 158t381 -158t123 -488t-123 -489.5t-381 -159.5t-381 160t-123 489zM315 614q0 -186 31 -290.5t102.5 -150.5t198.5 -46t199 46t102.5 150.5t30.5 290.5t-30.5 291t-102.5 151t-199 46t-198.5 -46t-102.5 -150.5t-31 -291.5zM520 1352 l197 315h221l-256 -315h-162z" />
<glyph unicode="&#xf4;" horiz-adv-x="1294" d="M143 616q0 330 123 488t381 158t381 -158t123 -488t-123 -489.5t-381 -159.5t-381 160t-123 489zM281 1352l251 315h201l252 -315h-205l-147 235l-150 -235h-202zM315 614q0 -186 31 -290.5t102.5 -150.5t198.5 -46t199 46t102.5 150.5t30.5 290.5t-30.5 291t-102.5 151 t-199 46t-198.5 -46t-102.5 -150.5t-31 -291.5z" />
<glyph unicode="&#xf5;" horiz-adv-x="1294" d="M143 616q0 330 123 488t381 158t381 -158t123 -488t-123 -489.5t-381 -159.5t-381 160t-123 489zM315 614q0 -186 31 -290.5t102.5 -150.5t198.5 -46t199 46t102.5 150.5t30.5 290.5t-30.5 291t-102.5 151t-199 46t-198.5 -46t-102.5 -150.5t-31 -291.5zM344 1386 q0 84 58.5 131.5t138.5 47.5q37 0 65.5 -7.5t67.5 -21.5q27 -10 55.5 -17.5t58.5 -7.5q70 0 70 43h92q0 -84 -55 -128t-141 -44q-33 0 -75 12.5t-50 14.5q-80 27 -123 27q-33 0 -51.5 -13.5t-18.5 -36.5h-92z" />
<glyph unicode="&#xf6;" horiz-adv-x="1294" d="M143 616q0 330 123 488t381 158t381 -158t123 -488t-123 -489.5t-381 -159.5t-381 160t-123 489zM315 614q0 -186 31 -290.5t102.5 -150.5t198.5 -46t199 46t102.5 150.5t30.5 290.5t-30.5 291t-102.5 151t-199 46t-198.5 -46t-102.5 -150.5t-31 -291.5zM338 1511 q0 43 33 71t82 28q47 0 80.5 -28t33.5 -71q0 -45 -33.5 -71.5t-80.5 -26.5q-49 0 -82 26.5t-33 71.5zM725 1511q0 43 34 71t81 28q49 0 83 -28t34 -71q0 -45 -34 -71.5t-83 -26.5q-47 0 -81 26.5t-34 71.5z" />
<glyph unicode="&#xf7;" horiz-adv-x="1126" d="M72 553v154h983v-154h-983zM436 279q0 45 37 75.5t90 30.5t90 -30.5t37 -75.5t-37 -75t-90 -30t-90 29.5t-37 75.5zM436 979q0 45 37 75.5t90 30.5t90 -30.5t37 -75.5t-37 -75t-90 -30t-90 30t-37 75z" />
<glyph unicode="&#xf8;" horiz-adv-x="1294" d="M139 0l107 156q-102 156 -103 460q0 330 123 488t381 158q188 0 303 -82l33 49h172l-106 -154q102 -156 102 -459q0 -330 -123 -489.5t-381 -159.5q-188 0 -301 82l-35 -49h-172zM315 614q0 -201 35 -307l508 742q-72 53 -211 53q-127 0 -198.5 -46t-102.5 -150.5 t-31 -291.5zM436 180q72 -53 211 -53q127 0 199 46t102.5 150.5t30.5 290.5q0 202 -35 308z" />
<glyph unicode="&#xf9;" horiz-adv-x="1249" d="M174 1229h184l-10 -307v-547q0 -131 51.5 -190.5t159.5 -59.5q82 0 184.5 55.5t147.5 124.5v617l-10 307h184l-10 -307v-625l10 -297h-166l-10 168q-57 -84 -167 -138.5t-224 -54.5q-145 0 -229.5 93.5t-84.5 263.5v590zM332 1667h221l197 -315h-162z" />
<glyph unicode="&#xfa;" horiz-adv-x="1249" d="M174 1229h184l-10 -307v-547q0 -131 51.5 -190.5t159.5 -59.5q82 0 184.5 55.5t147.5 124.5v617l-10 307h184l-10 -307v-625l10 -297h-166l-10 168q-57 -84 -167 -138.5t-224 -54.5q-145 0 -229.5 93.5t-84.5 263.5v590zM495 1352l197 315h221l-256 -315h-162z" />
<glyph unicode="&#xfb;" horiz-adv-x="1249" d="M174 1229h184l-10 -307v-547q0 -131 51.5 -190.5t159.5 -59.5q82 0 184.5 55.5t147.5 124.5v617l-10 307h184l-10 -307v-625l10 -297h-166l-10 168q-57 -84 -167 -138.5t-224 -54.5q-145 0 -229.5 93.5t-84.5 263.5v590zM256 1352l251 315h201l252 -315h-205l-147 235 l-150 -235h-202z" />
<glyph unicode="&#xfc;" horiz-adv-x="1249" d="M174 1229h184l-10 -307v-547q0 -131 51.5 -190.5t159.5 -59.5q82 0 184.5 55.5t147.5 124.5v617l-10 307h184l-10 -307v-625l10 -297h-166l-10 168q-57 -84 -167 -138.5t-224 -54.5q-145 0 -229.5 93.5t-84.5 263.5v590zM313 1511q0 43 33 71t82 28q47 0 80.5 -28 t33.5 -71q0 -45 -33.5 -71.5t-80.5 -26.5q-49 0 -82 26.5t-33 71.5zM700 1511q0 43 34 71t81 28q49 0 83 -28t34 -71q0 -45 -34 -71.5t-83 -26.5q-47 0 -81 26.5t-34 71.5z" />
<glyph unicode="&#xfd;" horiz-adv-x="1183" d="M72 1229h215l75 -297l228 -760l233 760l76 297h213l-111 -297l-317 -932q-117 -295 -332 -442l-135 123l8 34q72 18 163 104.5t136 180.5h-35l-305 932zM471 1352l197 315h221l-256 -315h-162z" />
<glyph unicode="&#xfe;" horiz-adv-x="1259" d="M184 -410l11 308v1443l-11 297h185l-11 -297v-172q113 84 291 84q240 0 353.5 -152.5t113.5 -484.5q0 -313 -122 -472.5t-349 -159.5q-90 0 -167 42t-120 115v-243l11 -308h-185zM358 244q43 -53 108.5 -79t166.5 -26q162 0 236.5 113t74.5 364q0 184 -31.5 288 t-102.5 148t-196 44q-166 0 -256 -47v-805z" />
<glyph unicode="&#xff;" horiz-adv-x="1183" d="M72 1229h215l75 -297l228 -760l233 760l76 297h213l-111 -297l-317 -932q-117 -295 -332 -442l-135 123l8 34q72 18 163 104.5t136 180.5h-35l-305 932zM289 1511q0 43 33 71t82 28q47 0 80.5 -28t33.5 -71q0 -45 -33.5 -71.5t-80.5 -26.5q-49 0 -82 26.5t-33 71.5z M676 1511q0 43 34 71t81 28q49 0 83 -28t34 -71q0 -45 -34 -71.5t-83 -26.5q-47 0 -81 26.5t-34 71.5z" />
<glyph unicode="&#x152;" horiz-adv-x="2174" d="M147 774q0 397 145.5 596t422.5 199q285 0 413 -221v188h920l-25 -160h-747v-506h678l-25 -159h-653v-551h786l-24 -160h-910v193q-127 -225 -413 -226q-274 0 -421 203t-147 604zM326 774q0 -340 94 -490.5t295 -150.5q200 0 294.5 150.5t94.5 490.5q0 332 -95.5 480.5 t-293.5 148.5q-199 0 -294 -148.5t-95 -480.5z" />
<glyph unicode="&#x153;" horiz-adv-x="2127" d="M143 616q0 330 123 488t381 158q326 0 438 -256q117 256 431 256q238 0 353.5 -127t135.5 -418l-51 -189h-760q4 -209 80 -305t270 -96q229 0 391 113l35 -17l-37 -145q-74 -53 -169 -78t-248 -25q-168 0 -273.5 60.5t-159.5 181.5q-59 -127 -166.5 -188.5t-269.5 -61.5 q-258 0 -381 160t-123 489zM315 614q0 -186 31 -290.5t102.5 -150.5t198.5 -46t199 46t102.5 150.5t30.5 290.5t-30.5 291t-102.5 151t-199 46t-198.5 -46t-102.5 -150.5t-31 -291.5zM1192 678h639q-2 158 -32 249t-95.5 133t-179.5 42q-123 0 -195 -42t-103.5 -133 t-33.5 -249z" />
<glyph unicode="&#x178;" horiz-adv-x="1253" d="M82 1536h211l106 -297l226 -577l229 577l107 297h210l-139 -297l-321 -758v-172l10 -307h-189l11 307v166l-322 764zM309 1818q0 43 33 71t82 28q47 0 80.5 -28t33.5 -71q0 -45 -33.5 -71.5t-80.5 -26.5q-49 0 -82 26.5t-33 71.5zM696 1818q0 43 34 71t81 28q49 0 83 -28 t34 -71q0 -45 -34 -71.5t-83 -26.5q-47 0 -81 26.5t-34 71.5z" />
<glyph unicode="&#x2c6;" horiz-adv-x="950" d="M123 1352l251 315h201l252 -315h-205l-147 235l-150 -235h-202z" />
<glyph unicode="&#x2dc;" horiz-adv-x="851" d="M123 1386q0 84 58.5 131.5t138.5 47.5q37 0 65.5 -7.5t67.5 -21.5q27 -10 55.5 -17.5t58.5 -7.5q70 0 70 43h92q0 -84 -55 -128t-141 -44q-33 0 -75 12.5t-50 14.5q-80 27 -123 27q-33 0 -51.5 -13.5t-18.5 -36.5h-92z" />
<glyph unicode="&#x2000;" horiz-adv-x="1019" />
<glyph unicode="&#x2001;" horiz-adv-x="2038" />
<glyph unicode="&#x2002;" horiz-adv-x="1019" />
<glyph unicode="&#x2003;" horiz-adv-x="2038" />
<glyph unicode="&#x2004;" horiz-adv-x="679" />
<glyph unicode="&#x2005;" horiz-adv-x="509" />
<glyph unicode="&#x2006;" horiz-adv-x="339" />
<glyph unicode="&#x2007;" horiz-adv-x="339" />
<glyph unicode="&#x2008;" horiz-adv-x="254" />
<glyph unicode="&#x2009;" horiz-adv-x="407" />
<glyph unicode="&#x200a;" horiz-adv-x="113" />
<glyph unicode="&#x2010;" horiz-adv-x="958" d="M123 553v154h713v-154h-713z" />
<glyph unicode="&#x2011;" horiz-adv-x="958" d="M123 553v154h713v-154h-713z" />
<glyph unicode="&#x2012;" horiz-adv-x="958" d="M123 553v154h713v-154h-713z" />
<glyph unicode="&#x2013;" horiz-adv-x="1372" d="M195 553v154h983v-154h-983z" />
<glyph unicode="&#x2014;" horiz-adv-x="1781" d="M195 553v154h1392v-154h-1392z" />
<glyph unicode="&#x2018;" horiz-adv-x="581" d="M133 1409q0 84 57.5 194.5t135.5 168.5l55 -41l-4 -9q-29 -20 -57.5 -85.5t-32.5 -114.5h12q63 0 106.5 -38t43.5 -95t-45.5 -95.5t-112.5 -38.5q-72 0 -115 42t-43 112z" />
<glyph unicode="&#x2019;" horiz-adv-x="581" d="M134 1577q0 57 45 95t112 38q72 0 115 -42t43 -112q0 -84 -57.5 -194.5t-135.5 -167.5l-55 41l4 8q29 20 57.5 86t32.5 115h-12q-63 0 -106 38t-43 95z" />
<glyph unicode="&#x201a;" horiz-adv-x="622" d="M154 125q0 57 45 95t112 38q72 0 115 -42t43 -112q0 -84 -57.5 -194.5t-135.5 -167.5l-55 41l4 8q29 20 57.5 86t32.5 115h-12q-63 0 -106 38t-43 95z" />
<glyph unicode="&#x201c;" horiz-adv-x="1044" d="M133 1382q0 84 57.5 194.5t135.5 168.5l55 -41l-4 -9q-29 -20 -57.5 -85.5t-32.5 -114.5h12q63 0 106.5 -38t43.5 -95t-45.5 -95.5t-112.5 -38.5q-72 0 -115 42t-43 112zM596 1384q0 84 57.5 194.5t135.5 168.5l55 -41l-4 -9q-29 -20 -57.5 -85.5t-32.5 -114.5h12 q63 0 106.5 -38t43.5 -95t-45.5 -95.5t-112.5 -38.5q-72 0 -115 42t-43 112z" />
<glyph unicode="&#x201d;" horiz-adv-x="1044" d="M134 1577q0 57 45 95t112 38q72 0 115 -42t43 -112q0 -84 -57.5 -194.5t-135.5 -167.5l-55 41l4 8q29 20 57.5 86t32.5 115h-12q-63 0 -106 38t-43 95zM597 1577q0 57 45 95t112 38q72 0 115 -42t43 -112q0 -84 -57.5 -194.5t-135.5 -167.5l-55 41l4 8q29 20 57.5 86 t32.5 115h-12q-63 0 -106 38t-43 95z" />
<glyph unicode="&#x201e;" horiz-adv-x="1085" d="M154 125q0 57 45 95t112 38q72 0 115 -42t43 -112q0 -84 -57.5 -194.5t-135.5 -167.5l-55 41l4 8q29 20 57.5 86t32.5 115h-12q-63 0 -106 38t-43 95zM617 125q0 57 45 95t112 38q72 0 115 -42t43 -112q0 -84 -57.5 -194.5t-135.5 -167.5l-55 41l4 8q29 20 57.5 86 t32.5 115h-12q-63 0 -106 38t-43 95z" />
<glyph unicode="&#x2022;" horiz-adv-x="811" d="M276 573q0 51 46 86q14 20 36.5 33t47.5 13q53 0 88 -50q41 -31 41 -82q0 -50 -43 -81q-35 -45 -86 -46q-51 0 -82 43q-47 31 -48 84z" />
<glyph unicode="&#x2026;" horiz-adv-x="1523" d="M154 125q0 55 45 94t112 39q68 0 113 -39t45 -94t-45 -92t-113 -37q-67 0 -112 37t-45 92zM605 125q0 55 45 94t112 39q68 0 113 -39t45 -94t-45 -92t-113 -37q-67 0 -112 37t-45 92zM1055 125q0 55 45 94t112 39q68 0 113 -39t45 -94t-45 -92t-113 -37q-67 0 -112 37 t-45 92z" />
<glyph unicode="&#x202f;" horiz-adv-x="407" />
<glyph unicode="&#x2039;" horiz-adv-x="940" d="M123 604l420 559h211l12 -33q-8 -2 -37 -26.5t-51 -54.5l-348 -445l348 -444q22 -31 51 -55.5t37 -26.5l-12 -33h-211z" />
<glyph unicode="&#x203a;" horiz-adv-x="940" d="M174 78q8 2 37 26.5t51 55.5l348 444l-348 445q-23 31 -51.5 55t-36.5 26l12 33h211l420 -559l-420 -559h-211z" />
<glyph unicode="&#x205f;" horiz-adv-x="509" />
<glyph unicode="&#x20ac;" horiz-adv-x="1437" d="M51 532v144h166q-4 66 -4 98q0 43 2 66h-164v143h180q53 270 236.5 428t468.5 158q260 0 450 -135l-43 -156l-22 -4q-59 53 -169 91t-216 38q-205 0 -340 -110.5t-182 -309.5h868l-33 -143h-856q-2 -20 -2 -66q0 -37 4 -98h828l-33 -144h-768q53 -190 187 -294.5 t327 -104.5q115 0 223.5 41t173.5 107l29 -13l-41 -172q-51 -53 -165 -91t-220 -38q-281 0 -462 147.5t-238 417.5h-185z" />
<glyph unicode="&#x2122;" horiz-adv-x="1216" d="M10 1757h486l-23 -112l-10 -3l-94 13h-62v-271l6 -155h-118l6 155v271h-64l-92 -13l-12 3zM551 1229l4 155v222l-4 151h182l107 -385l106 385h197l-4 -151v-222l6 -155h-123l4 155v297l-135 -452h-111l-135 446v-291l6 -155h-100z" />
<glyph unicode="&#x25fc;" horiz-adv-x="1228" d="M0 0v1229h1229v-1229h-1229z" />
<glyph unicode="&#xfb03;" horiz-adv-x="2222" d="M154 1079v101l131 49q0 219 69.5 314t227.5 95q72 0 146.5 -11t107.5 -25l-19 -123l-35 -21q-27 8 -76 14.5t-98 6.5q-86 0 -122.5 -37t-36.5 -113v-100h616v-2l4 2q0 242 68.5 342t228.5 100q176 0 262 -33l-20 -118l-35 -21q-61 12 -180 12q-86 0 -123 -42t-37 -140 v-100h805l-10 -297v-625l10 -307h-185l11 307v625l-4 147h-627v-772l10 -307h-184l10 307v772h-620v-772l10 -307h-185l11 307v772h-131zM1829 1548q0 41 33.5 70t83.5 29q49 0 82.5 -29t33.5 -70t-33.5 -68.5t-82.5 -27.5q-50 0 -83.5 27.5t-33.5 68.5z" />
</font>
</defs>
</svg>
